<svg width="18" height="21" viewBox="0 0 18 21" fill="none" xmlns="http://www.w3.org/2000/svg">
<mask id="mask0_5_221" style="mask-type:luminance" maskUnits="userSpaceOnUse" x="0" y="12" width="18" height="9">
<path fill-rule="evenodd" clip-rule="evenodd" d="M0 12H18V20.1H0V12Z" fill="white"/>
</mask>
<g mask="url(#mask0_5_221)">
<path fill-rule="evenodd" clip-rule="evenodd" d="M8.99988 13.7114C5.70545 13.7114 1.77797 14.1187 1.77797 16.0639C1.77797 17.6064 4.20819 18.3891 8.99988 18.3891C13.7916 18.3891 16.2218 17.5984 16.2218 16.0411C16.2218 14.4952 13.7916 13.7114 8.99988 13.7114M8.9999 20.1005C6.53886 20.1005 -0.000213623 20.1005 -0.000213623 16.0639C-0.000213623 12 6.77358 12 8.9999 12C12.8634 12 18 12.4187 18 16.0411C18 20.1005 11.2262 20.1005 8.9999 20.1005" fill="#808B96"/>
</g>
<path fill-rule="evenodd" clip-rule="evenodd" d="M8.99972 1.4606C7.04735 1.4606 5.45917 3.04879 5.45917 5.00018C5.45917 6.95157 7.04735 8.53976 8.99972 8.53976H9.02991C9.9686 8.53586 10.8528 8.16681 11.5159 7.49785C12.18 6.83083 12.5432 5.94374 12.5393 5.0031C12.5393 3.04879 10.9511 1.4606 8.99972 1.4606V1.4606ZM8.99974 10.0004C6.24208 10.0004 3.99857 7.75688 3.99857 5.0002C3.99857 2.24352 6.24208 0 8.99974 0C11.7564 0 13.9999 2.24352 13.9999 5.0002C14.0058 6.32839 13.4907 7.58258 12.552 8.52712C11.6152 9.47263 10.364 9.99553 9.03285 10.0004H8.99974Z" fill="#808B96"/>
</svg>
