<svg width="20" height="20" viewBox="0 0 20 20" fill="none" xmlns="http://www.w3.org/2000/svg">
<mask id="mask0_5_220" style="mask-type:luminance" maskUnits="userSpaceOnUse" x="0" y="11" width="16" height="9">
<path fill-rule="evenodd" clip-rule="evenodd" d="M0 11.957H15.1838V19.0566H0V11.957Z" fill="white"/>
</mask>
<g mask="url(#mask0_5_220)">
<path fill-rule="evenodd" clip-rule="evenodd" d="M7.5918 13.457C4.8128 13.457 1.4998 13.814 1.4998 15.519C1.4998 16.871 3.5498 17.557 7.5918 17.557C11.6338 17.557 13.6838 16.864 13.6838 15.499C13.6838 14.144 11.6338 13.457 7.5918 13.457M7.59179 19.057C5.51579 19.057 -0.000213623 19.057 -0.000213623 15.519C-0.000213623 11.957 5.71379 11.957 7.59179 11.957C10.8508 11.957 15.1838 12.324 15.1838 15.499C15.1838 19.057 9.46979 19.057 7.59179 19.057" fill="#808B96"/>
</g>
<path fill-rule="evenodd" clip-rule="evenodd" d="M7.5918 1.49999C5.5868 1.49999 3.9558 3.13099 3.9558 5.13499C3.9558 7.13899 5.5868 8.76999 7.5918 8.76999H7.6228C8.5868 8.76599 9.4948 8.38699 10.1758 7.69999C10.8578 7.01499 11.2308 6.10399 11.2268 5.13799C11.2268 3.13099 9.5958 1.49999 7.5918 1.49999V1.49999ZM7.59181 10.27C4.75981 10.27 2.45581 7.966 2.45581 5.135C2.45581 2.304 4.75981 0 7.59181 0C10.4228 0 12.7268 2.304 12.7268 5.135C12.7328 6.499 12.2038 7.787 11.2398 8.757C10.2778 9.728 8.99281 10.265 7.62581 10.27H7.59181Z" fill="#808B96"/>
<path fill-rule="evenodd" clip-rule="evenodd" d="M14.4824 9.1318C14.1144 9.1318 13.7934 8.8608 13.7404 8.4858C13.6834 8.0758 13.9684 7.6958 14.3784 7.6388C15.6264 7.4638 16.5684 6.3808 16.5704 5.1188C16.5704 3.8648 15.6724 2.8068 14.4374 2.6048C14.0284 2.5368 13.7514 2.1518 13.8184 1.7428C13.8854 1.3338 14.2724 1.0588 14.6794 1.1238C16.6444 1.4458 18.0704 3.1268 18.0704 5.1198C18.0664 7.1248 16.5694 8.8468 14.5874 9.1248C14.5524 9.1298 14.5174 9.1318 14.4824 9.1318" fill="#808B96"/>
<mask id="mask1_5_220" style="mask-type:luminance" maskUnits="userSpaceOnUse" x="15" y="11" width="5" height="6">
<path fill-rule="evenodd" clip-rule="evenodd" d="M15.8452 11.4834H19.979V16.4609H15.8452V11.4834Z" fill="white"/>
</mask>
<g mask="url(#mask1_5_220)">
<path fill-rule="evenodd" clip-rule="evenodd" d="M17.8955 16.4609C17.5925 16.4609 17.3075 16.2759 17.1945 15.9769C17.0475 15.5899 17.2425 15.1559 17.6295 15.0099C18.4795 14.6879 18.4795 14.2949 18.4795 14.1269C18.4795 13.5599 17.8085 13.1719 16.4855 12.9749C16.0755 12.9129 15.7925 12.5309 15.8535 12.1219C15.9155 11.7119 16.3045 11.4369 16.7065 11.4899C19.4125 11.8949 19.9795 13.1479 19.9795 14.1269C19.9795 14.8559 19.6645 15.8429 18.1615 16.4119C18.0745 16.4449 17.9845 16.4609 17.8955 16.4609" fill="#808B96"/>
</g>
</svg>
