<svg width="26" height="24" viewBox="0 0 26 24" fill="none" xmlns="http://www.w3.org/2000/svg">
<g id="Iconly/Light-Outline/3 User">
<g id="3 User">
<g id="Fill 1">
<mask id="path-1-outside-1_37_1067" maskUnits="userSpaceOnUse" x="17.7888" y="2.46936" width="6" height="10" fill="black">
<rect fill="white" x="17.7888" y="2.46936" width="6" height="10"/>
<path fill-rule="evenodd" clip-rule="evenodd" d="M19.6147 11.3803C19.2091 11.3803 18.8552 11.0816 18.7968 10.6682C18.734 10.2151 19.0481 9.79734 19.5012 9.73451C20.6476 9.57357 21.513 8.57927 21.5152 7.41961C21.5152 6.26988 20.6906 5.29762 19.5541 5.11132C19.1044 5.03747 18.799 4.61197 18.8729 4.16111C18.9478 3.71026 19.37 3.40822 19.8231 3.47987C21.761 3.79845 23.1687 5.45635 23.1687 7.42181C23.1643 9.4005 21.686 11.0981 19.7294 11.3726C19.6908 11.3781 19.6522 11.3803 19.6147 11.3803Z"/>
</mask>
<path fill-rule="evenodd" clip-rule="evenodd" d="M19.6147 11.3803C19.2091 11.3803 18.8552 11.0816 18.7968 10.6682C18.734 10.2151 19.0481 9.79734 19.5012 9.73451C20.6476 9.57357 21.513 8.57927 21.5152 7.41961C21.5152 6.26988 20.6906 5.29762 19.5541 5.11132C19.1044 5.03747 18.799 4.61197 18.8729 4.16111C18.9478 3.71026 19.37 3.40822 19.8231 3.47987C21.761 3.79845 23.1687 5.45635 23.1687 7.42181C23.1643 9.4005 21.686 11.0981 19.7294 11.3726C19.6908 11.3781 19.6522 11.3803 19.6147 11.3803Z" fill="#404040"/>
<path d="M18.7968 10.6682L18.4997 10.7094L18.4998 10.7102L18.7968 10.6682ZM19.5012 9.73451L19.5424 10.0317L19.5429 10.0316L19.5012 9.73451ZM21.5152 7.41961L21.8152 7.42018V7.41961H21.5152ZM19.5541 5.11132L19.5055 5.40736L19.5056 5.40737L19.5541 5.11132ZM18.8729 4.16111L18.5769 4.11191L18.5768 4.11262L18.8729 4.16111ZM19.8231 3.47987L19.8718 3.18384L19.87 3.18355L19.8231 3.47987ZM23.1687 7.42181L23.4687 7.42248V7.42181H23.1687ZM19.7294 11.3726L19.6877 11.0755L19.687 11.0756L19.7294 11.3726ZM19.6147 11.0803C19.3567 11.0803 19.1311 10.8898 19.0939 10.6262L18.4998 10.7102C18.5794 11.2733 19.0614 11.6803 19.6147 11.6803V11.0803ZM19.094 10.627C19.0538 10.3371 19.2545 10.0716 19.5424 10.0317L19.46 9.43735C18.8418 9.52308 18.4142 10.0932 18.4997 10.7094L19.094 10.627ZM19.5429 10.0316C20.8375 9.84985 21.8127 8.72889 21.8152 7.42018L21.2152 7.41904C21.2132 8.42964 20.4577 9.29729 19.4595 9.43742L19.5429 10.0316ZM21.8152 7.41961C21.8152 6.12301 20.8843 5.02536 19.6026 4.81528L19.5056 5.40737C20.497 5.56988 21.2152 6.41674 21.2152 7.41961H21.8152ZM19.6027 4.81529C19.3168 4.76834 19.1218 4.49739 19.1689 4.20961L18.5768 4.11262C18.4763 4.72655 18.8919 5.3066 19.5055 5.40736L19.6027 4.81529ZM19.1688 4.21032C19.2165 3.9236 19.4843 3.73002 19.7762 3.77619L19.87 3.18355C19.2558 3.08642 18.6792 3.49691 18.5769 4.11191L19.1688 4.21032ZM19.7744 3.7759C21.5673 4.07063 22.8687 5.60319 22.8687 7.42181H23.4687C23.4687 5.30952 21.9547 3.52626 19.8718 3.18384L19.7744 3.7759ZM22.8687 7.42115C22.8646 9.25076 21.4962 10.8218 19.6877 11.0755L19.7711 11.6697C21.8758 11.3744 23.4639 9.55024 23.4687 7.42248L22.8687 7.42115ZM19.687 11.0756C19.6648 11.0788 19.6407 11.0803 19.6147 11.0803V11.6803C19.6638 11.6803 19.7168 11.6774 19.7718 11.6696L19.687 11.0756Z" fill="#404040" mask="url(#path-1-outside-1_37_1067)"/>
</g>
<g id="Group 5">
<mask id="mask0_37_1067" style="mask-type:luminance" maskUnits="userSpaceOnUse" x="20" y="13" width="6" height="6">
<path id="Clip 4" d="M20.8176 13.2753H20.6676V13.4253V18.4184V18.5684H20.8176H24.9998H25.1498V18.4184V13.4253V13.2753H24.9998H20.8176Z" fill="white" stroke="white" stroke-width="0.3"/>
</mask>
<g mask="url(#mask0_37_1067)">
<g id="Fill 3">
<mask id="path-4-outside-2_37_1067" maskUnits="userSpaceOnUse" x="19.8176" y="12.4253" width="6" height="7" fill="black">
<rect fill="white" x="19.8176" y="12.4253" width="6" height="7"/>
<path fill-rule="evenodd" clip-rule="evenodd" d="M22.8936 18.4184C22.5607 18.4184 22.2466 18.2156 22.1209 17.886C21.9577 17.4594 22.1727 16.9809 22.5993 16.8189C23.3467 16.5345 23.3467 16.2203 23.3467 16.0693C23.3467 15.5865 22.7327 15.2492 21.5223 15.0684C21.0715 15.0001 20.7595 14.5801 20.8267 14.127C20.894 13.675 21.3129 13.3741 21.7681 13.4325C24.4391 13.8327 25.0002 15.0871 25.0002 16.0693C25.0002 16.669 24.7643 17.7636 23.1879 18.3644C23.0909 18.4007 22.9917 18.4184 22.8936 18.4184Z"/>
</mask>
<path fill-rule="evenodd" clip-rule="evenodd" d="M22.8936 18.4184C22.5607 18.4184 22.2466 18.2156 22.1209 17.886C21.9577 17.4594 22.1727 16.9809 22.5993 16.8189C23.3467 16.5345 23.3467 16.2203 23.3467 16.0693C23.3467 15.5865 22.7327 15.2492 21.5223 15.0684C21.0715 15.0001 20.7595 14.5801 20.8267 14.127C20.894 13.675 21.3129 13.3741 21.7681 13.4325C24.4391 13.8327 25.0002 15.0871 25.0002 16.0693C25.0002 16.669 24.7643 17.7636 23.1879 18.3644C23.0909 18.4007 22.9917 18.4184 22.8936 18.4184Z" fill="#404040"/>
<path d="M22.1209 17.886L22.4012 17.7791L22.4011 17.7788L22.1209 17.886ZM22.5993 16.8189L22.7058 17.0993L22.706 17.0993L22.5993 16.8189ZM21.5223 15.0684L21.4774 15.365L21.478 15.3651L21.5223 15.0684ZM20.8267 14.127L20.53 14.0829L20.53 14.083L20.8267 14.127ZM21.7681 13.4325L21.8126 13.1358L21.8063 13.135L21.7681 13.4325ZM23.1879 18.3644L23.2933 18.6453L23.2948 18.6447L23.1879 18.3644ZM22.8936 18.1184C22.681 18.1184 22.4811 17.9886 22.4012 17.7791L21.8406 17.9928C22.012 18.4426 22.4404 18.7184 22.8936 18.7184V18.1184ZM22.4011 17.7788C22.2973 17.5074 22.4341 17.2026 22.7058 17.0993L22.4928 16.5385C21.9113 16.7593 21.6182 17.4113 21.8407 17.9931L22.4011 17.7788ZM22.706 17.0993C23.1092 16.9459 23.3575 16.7675 23.4987 16.5666C23.6475 16.3548 23.6467 16.1594 23.6467 16.0693H23.0467C23.0467 16.1302 23.0459 16.1674 23.0078 16.2216C22.9621 16.2866 22.8368 16.4075 22.4926 16.5385L22.706 17.0993ZM23.6467 16.0693C23.6467 15.6731 23.3859 15.3864 23.0327 15.1926C22.6818 15 22.1846 14.864 21.5666 14.7717L21.478 15.3651C22.0704 15.4536 22.4853 15.5766 22.744 15.7186C23.0004 15.8593 23.0467 15.9827 23.0467 16.0693H23.6467ZM21.5673 14.7718C21.2795 14.7282 21.0806 14.4602 21.1235 14.171L20.53 14.083C20.4384 14.6999 20.8634 15.2719 21.4774 15.365L21.5673 14.7718ZM21.1235 14.1712C21.1654 13.8895 21.4277 13.6913 21.73 13.7301L21.8063 13.135C21.198 13.0569 20.6226 13.4605 20.53 14.0829L21.1235 14.1712ZM21.7237 13.7292C23.0203 13.9235 23.758 14.3184 24.1709 14.7421C24.5788 15.1605 24.7002 15.638 24.7002 16.0693H25.3002C25.3002 15.5184 25.141 14.8776 24.6006 14.3233C24.0653 13.7741 23.1869 13.3417 21.8126 13.1358L21.7237 13.7292ZM24.7002 16.0693C24.7002 16.3313 24.6485 16.697 24.4284 17.0613C24.2107 17.4216 23.8138 17.8048 23.0811 18.084L23.2948 18.6447C24.1385 18.3232 24.6476 17.8587 24.942 17.3716C25.2339 16.8885 25.3002 16.407 25.3002 16.0693H24.7002ZM23.0826 18.0835C23.019 18.1073 22.9555 18.1184 22.8936 18.1184V18.7184C23.028 18.7184 23.1629 18.6942 23.2933 18.6453L23.0826 18.0835Z" fill="#404040" mask="url(#path-4-outside-2_37_1067)"/>
</g>
</g>
</g>
<g id="Fill 6">
<mask id="path-6-outside-3_37_1067" maskUnits="userSpaceOnUse" x="4.60522" y="12.8796" width="17" height="9" fill="black">
<rect fill="white" x="4.60522" y="12.8796" width="17" height="9"/>
<path fill-rule="evenodd" clip-rule="evenodd" d="M13.0008 15.5333C10.3817 15.5333 7.25879 15.8551 7.25879 17.3874C7.25879 18.9318 10.3817 19.2558 13.0008 19.2558C15.62 19.2558 18.7418 18.9351 18.7418 17.4061C18.7418 15.8585 15.62 15.5333 13.0008 15.5333ZM13.0008 20.9092C11.172 20.9092 5.60522 20.9092 5.60522 17.3873C5.60522 13.8796 11.172 13.8796 13.0008 13.8796C14.8295 13.8796 20.3952 13.8796 20.3952 17.406C20.3952 20.9092 15.0236 20.9092 13.0008 20.9092Z"/>
</mask>
<path fill-rule="evenodd" clip-rule="evenodd" d="M13.0008 15.5333C10.3817 15.5333 7.25879 15.8551 7.25879 17.3874C7.25879 18.9318 10.3817 19.2558 13.0008 19.2558C15.62 19.2558 18.7418 18.9351 18.7418 17.4061C18.7418 15.8585 15.62 15.5333 13.0008 15.5333ZM13.0008 20.9092C11.172 20.9092 5.60522 20.9092 5.60522 17.3873C5.60522 13.8796 11.172 13.8796 13.0008 13.8796C14.8295 13.8796 20.3952 13.8796 20.3952 17.406C20.3952 20.9092 15.0236 20.9092 13.0008 20.9092Z" fill="#404040"/>
<path d="M13.0008 15.2333C11.6852 15.2333 10.2204 15.3135 9.07612 15.5944C8.50565 15.7344 7.98954 15.9301 7.60982 16.2097C7.22191 16.4952 6.95879 16.884 6.95879 17.3874H7.55879C7.55879 17.1246 7.68603 16.8986 7.96552 16.6929C8.25319 16.4811 8.6815 16.3091 9.21915 16.1771C10.2912 15.9139 11.6973 15.8333 13.0008 15.8333V15.2333ZM6.95879 17.3874C6.95879 17.8928 7.22084 18.2839 7.60892 18.5718C7.9887 18.8535 8.50497 19.0508 9.07561 19.192C10.2201 19.475 11.6852 19.5558 13.0008 19.5558V18.9558C11.6973 18.9558 10.2914 18.8746 9.21966 18.6095C8.68218 18.4766 8.25403 18.3033 7.96641 18.0899C7.6871 17.8827 7.55879 17.6542 7.55879 17.3874H6.95879ZM13.0008 19.5558C14.3164 19.5558 15.781 19.4759 16.9249 19.1957C17.4951 19.0561 18.0111 18.8608 18.3907 18.5819C18.7785 18.297 19.0418 17.9089 19.0418 17.4061H18.4418C18.4418 17.6678 18.3149 17.8931 18.0355 18.0984C17.7479 18.3097 17.3197 18.4813 16.7821 18.6129C15.7103 18.8754 14.3044 18.9558 13.0008 18.9558V19.5558ZM19.0418 17.4061C19.0418 16.9002 18.7801 16.5085 18.3921 16.2199C18.0124 15.9374 17.4963 15.7396 16.9257 15.5981C15.7814 15.3143 14.3165 15.2333 13.0008 15.2333V15.8333C14.3043 15.8333 15.7099 15.9148 16.7813 16.1805C17.3186 16.3137 17.7465 16.4874 18.034 16.7013C18.3132 16.9089 18.4418 17.1382 18.4418 17.4061H19.0418ZM13.0008 20.6092C12.0821 20.6092 10.272 20.6077 8.69587 20.1795C7.90839 19.9655 7.20579 19.6516 6.70427 19.2004C6.21245 18.7579 5.90522 18.1767 5.90522 17.3873H5.30522C5.30522 18.3588 5.69385 19.0984 6.30295 19.6464C6.90235 20.1857 7.70575 20.5322 8.53855 20.7585C10.203 21.2107 12.0907 21.2092 13.0008 21.2092V20.6092ZM5.90522 17.3873C5.90522 16.6018 6.21208 16.0235 6.70381 15.5828C7.20531 15.1335 7.90797 14.8208 8.69557 14.6077C10.2718 14.1811 12.0821 14.1796 13.0008 14.1796V13.5796C12.0907 13.5796 10.2032 13.5781 8.53885 14.0285C7.70617 14.2538 6.90283 14.5989 6.3034 15.136C5.69422 15.6819 5.30522 16.4189 5.30522 17.3873H5.90522ZM13.0008 14.1796C13.9195 14.1796 15.7293 14.1812 17.305 14.6099C18.0923 14.8241 18.7948 15.1384 19.2962 15.5902C19.7879 16.0333 20.0952 16.6153 20.0952 17.406H20.6952C20.6952 16.4335 20.3068 15.6932 19.6978 15.1445C19.0985 14.6045 18.2953 14.2575 17.4626 14.031C15.7983 13.5781 13.9108 13.5796 13.0008 13.5796V14.1796ZM20.0952 17.406C20.0952 18.1939 19.7977 18.7719 19.3211 19.2106C18.8351 19.6579 18.1516 19.9695 17.3772 20.182C15.8264 20.6076 14.0176 20.6092 13.0008 20.6092V21.2092C14.0067 21.2092 15.8952 21.2109 17.5359 20.7606C18.3573 20.5352 19.1431 20.1899 19.7275 19.652C20.3213 19.1054 20.6952 18.3697 20.6952 17.406H20.0952Z" fill="#404040" mask="url(#path-6-outside-3_37_1067)"/>
</g>
<g id="Fill 8">
<mask id="path-8-outside-4_37_1067" maskUnits="userSpaceOnUse" x="6.96533" y="1.40015" width="12" height="12" fill="black">
<rect fill="white" x="6.96533" y="1.40015" width="12" height="12"/>
<path fill-rule="evenodd" clip-rule="evenodd" d="M13.0005 4.05372C11.1354 4.05372 9.61855 5.57164 9.61855 7.43678C9.61524 8.3407 9.96137 9.18619 10.5952 9.82444C11.2291 10.4627 12.0734 10.8165 12.9729 10.8198L13.0005 11.6466V10.8198C14.8657 10.8198 16.3836 9.30303 16.3836 7.43678C16.3836 5.57164 14.8657 4.05372 13.0005 4.05372ZM13.0008 12.4733H12.9711C11.6262 12.4689 10.3663 11.9419 9.42266 10.9895C8.47686 10.0382 7.95986 8.77494 7.96538 7.4334C7.96538 4.65993 10.2241 2.40015 13.0008 2.40015C15.7787 2.40015 18.0374 4.65993 18.0374 7.43671C18.0374 10.2135 15.7787 12.4733 13.0008 12.4733Z"/>
</mask>
<path fill-rule="evenodd" clip-rule="evenodd" d="M13.0005 4.05372C11.1354 4.05372 9.61855 5.57164 9.61855 7.43678C9.61524 8.3407 9.96137 9.18619 10.5952 9.82444C11.2291 10.4627 12.0734 10.8165 12.9729 10.8198L13.0005 11.6466V10.8198C14.8657 10.8198 16.3836 9.30303 16.3836 7.43678C16.3836 5.57164 14.8657 4.05372 13.0005 4.05372ZM13.0008 12.4733H12.9711C11.6262 12.4689 10.3663 11.9419 9.42266 10.9895C8.47686 10.0382 7.95986 8.77494 7.96538 7.4334C7.96538 4.65993 10.2241 2.40015 13.0008 2.40015C15.7787 2.40015 18.0374 4.65993 18.0374 7.43671C18.0374 10.2135 15.7787 12.4733 13.0008 12.4733Z" fill="#404040"/>
<path d="M9.61855 7.43678L9.91855 7.43788V7.43678H9.61855ZM12.9729 10.8198L13.2728 10.8099L13.2631 10.5209L12.974 10.5198L12.9729 10.8198ZM13.0005 11.6466L12.7007 11.6566L13.3005 11.6466H13.0005ZM13.0005 10.8198V10.5198H12.7005V10.8198H13.0005ZM12.9711 12.4733L12.9701 12.7733H12.9711V12.4733ZM9.42266 10.9895L9.63578 10.7784L9.63541 10.778L9.42266 10.9895ZM7.96538 7.4334L8.26538 7.43463V7.4334H7.96538ZM13.0005 3.75372C10.9695 3.75372 9.31855 5.40608 9.31855 7.43678H9.91855C9.91855 5.73719 11.3012 4.35372 13.0005 4.35372V3.75372ZM9.31855 7.43569C9.31495 8.41885 9.69219 9.34087 10.3823 10.0358L10.8081 9.61304C10.2306 9.0315 9.91553 8.26255 9.91855 7.43788L9.31855 7.43569ZM10.3823 10.0358C11.0722 10.7304 11.9927 11.1162 12.9718 11.1198L12.974 10.5198C12.1542 10.5168 11.386 10.1949 10.8081 9.61304L10.3823 10.0358ZM12.6731 10.8298L12.7007 11.6566L13.3003 11.6366L13.2728 10.8099L12.6731 10.8298ZM13.3005 11.6466V10.8198H12.7005V11.6466H13.3005ZM13.0005 11.1198C15.0313 11.1198 16.6836 9.46878 16.6836 7.43678H16.0836C16.0836 9.13729 14.7 10.5198 13.0005 10.5198V11.1198ZM16.6836 7.43678C16.6836 5.40595 15.0313 3.75372 13.0005 3.75372V4.35372C14.7 4.35372 16.0836 5.73732 16.0836 7.43678H16.6836ZM13.0008 12.1733H12.9711V12.7733H13.0008V12.1733ZM12.9721 12.1733C11.7067 12.1691 10.5231 11.674 9.63578 10.7784L9.20954 11.2007C10.2094 12.2099 11.5458 12.7686 12.9701 12.7733L12.9721 12.1733ZM9.63541 10.778C8.74591 9.88333 8.26019 8.69665 8.26537 7.43463L7.66538 7.43217C7.65954 8.85323 8.20781 10.1931 9.20991 11.201L9.63541 10.778ZM8.26538 7.4334C8.26538 4.82566 10.3897 2.70015 13.0008 2.70015V2.10015C10.0584 2.10015 7.66538 4.4942 7.66538 7.4334H8.26538ZM13.0008 2.70015C15.613 2.70015 17.7374 4.82557 17.7374 7.43671H18.3374C18.3374 4.49429 15.9444 2.10015 13.0008 2.10015V2.70015ZM17.7374 7.43671C17.7374 10.0478 15.613 12.1733 13.0008 12.1733V12.7733C15.9444 12.7733 18.3374 10.3791 18.3374 7.43671H17.7374Z" fill="#404040" mask="url(#path-8-outside-4_37_1067)"/>
</g>
<g id="Fill 10">
<mask id="path-10-outside-5_37_1067" maskUnits="userSpaceOnUse" x="1.83276" y="2.46899" width="6" height="10" fill="black">
<rect fill="white" x="1.83276" y="2.46899" width="6" height="10"/>
<path fill-rule="evenodd" clip-rule="evenodd" d="M6.38558 11.3801C6.3481 11.3801 6.30952 11.3779 6.27094 11.3724C4.3143 11.0979 2.83717 9.40034 2.83276 7.42386C2.83276 5.4562 4.24044 3.79829 6.17834 3.47971C6.64243 3.40696 7.0536 3.7123 7.12856 4.16095C7.20241 4.61181 6.89707 5.03731 6.44731 5.11117C5.31081 5.29746 4.48626 6.26972 4.48626 7.42166C4.48847 8.57911 5.3538 9.57451 6.49912 9.73435C6.95218 9.79718 7.26635 10.215 7.20351 10.668C7.14509 11.0814 6.79124 11.3801 6.38558 11.3801Z"/>
</mask>
<path fill-rule="evenodd" clip-rule="evenodd" d="M6.38558 11.3801C6.3481 11.3801 6.30952 11.3779 6.27094 11.3724C4.3143 11.0979 2.83717 9.40034 2.83276 7.42386C2.83276 5.4562 4.24044 3.79829 6.17834 3.47971C6.64243 3.40696 7.0536 3.7123 7.12856 4.16095C7.20241 4.61181 6.89707 5.03731 6.44731 5.11117C5.31081 5.29746 4.48626 6.26972 4.48626 7.42166C4.48847 8.57911 5.3538 9.57451 6.49912 9.73435C6.95218 9.79718 7.26635 10.215 7.20351 10.668C7.14509 11.0814 6.79124 11.3801 6.38558 11.3801Z" fill="#404040"/>
<path d="M6.27094 11.3724L6.31337 11.0754L6.31262 11.0753L6.27094 11.3724ZM2.83276 7.42386H2.53276L2.53276 7.42453L2.83276 7.42386ZM6.17834 3.47971L6.13188 3.18332L6.12968 3.18369L6.17834 3.47971ZM7.12856 4.16095L7.42461 4.11246L7.42445 4.11152L7.12856 4.16095ZM6.44731 5.11117L6.49584 5.40721L6.49593 5.4072L6.44731 5.11117ZM4.48626 7.42166H4.18626L4.18626 7.42223L4.48626 7.42166ZM6.49912 9.73435L6.45766 10.0315L6.45791 10.0315L6.49912 9.73435ZM7.20351 10.668L7.50056 10.71L7.50067 10.7092L7.20351 10.668ZM6.38558 11.0801C6.35967 11.0801 6.33551 11.0786 6.31337 11.0754L6.22851 11.6694C6.28354 11.6773 6.33654 11.6801 6.38558 11.6801V11.0801ZM6.31262 11.0753C4.50413 10.8216 3.13684 9.25062 3.13276 7.42319L2.53276 7.42453C2.53751 9.55007 4.12447 11.3742 6.22926 11.6695L6.31262 11.0753ZM3.13276 7.42386C3.13276 5.60293 4.43423 4.07046 6.22701 3.77574L6.12968 3.18369C4.04666 3.52612 2.53276 5.30946 2.53276 7.42386H3.13276ZM6.22481 3.77609C6.52512 3.72901 6.7846 3.92276 6.83266 4.21039L7.42445 4.11152C7.32259 3.50185 6.75973 3.0849 6.13188 3.18333L6.22481 3.77609ZM6.8325 4.20945C6.87964 4.49723 6.68462 4.76818 6.3987 4.81513L6.49593 5.4072C7.10951 5.30644 7.52518 4.72639 7.42461 4.11246L6.8325 4.20945ZM6.39879 4.81512C5.117 5.02523 4.18626 6.12303 4.18626 7.42166H4.78626C4.78626 6.41641 5.50462 5.56969 6.49584 5.40721L6.39879 4.81512ZM4.18626 7.42223C4.18875 8.72859 5.1638 9.8509 6.45766 10.0315L6.54059 9.43723C5.5438 9.29812 4.78818 8.42962 4.78626 7.42108L4.18626 7.42223ZM6.45791 10.0315C6.74588 10.0714 6.94657 10.3369 6.90636 10.6268L7.50067 10.7092C7.58613 10.093 7.15849 9.52292 6.54034 9.4372L6.45791 10.0315ZM6.90647 10.626C6.86921 10.8896 6.64358 11.0801 6.38558 11.0801V11.6801C6.9389 11.6801 7.42097 11.2732 7.50056 10.71L6.90647 10.626Z" fill="#404040" mask="url(#path-10-outside-5_37_1067)"/>
</g>
<g id="Fill 12">
<mask id="path-12-outside-6_37_1067" maskUnits="userSpaceOnUse" x="0" y="12.4257" width="6" height="7" fill="black">
<rect fill="white" y="12.4257" width="6" height="7"/>
<path fill-rule="evenodd" clip-rule="evenodd" d="M3.10766 18.4185C3.00955 18.4185 2.91034 18.4009 2.81334 18.3645C1.2359 17.7626 1 16.668 1 16.0694C1 15.0884 1.56109 13.8328 4.23314 13.4327C4.68841 13.3753 5.10509 13.6752 5.17343 14.1271C5.24068 14.5802 4.92872 15.0002 4.47786 15.0685C3.2675 15.2493 2.6535 15.5866 2.6535 16.0694C2.6535 16.2205 2.6535 16.5335 3.40198 16.819C3.82859 16.9811 4.04354 17.4595 3.8804 17.8861C3.75473 18.2157 3.44057 18.4185 3.10766 18.4185Z"/>
</mask>
<path fill-rule="evenodd" clip-rule="evenodd" d="M3.10766 18.4185C3.00955 18.4185 2.91034 18.4009 2.81334 18.3645C1.2359 17.7626 1 16.668 1 16.0694C1 15.0884 1.56109 13.8328 4.23314 13.4327C4.68841 13.3753 5.10509 13.6752 5.17343 14.1271C5.24068 14.5802 4.92872 15.0002 4.47786 15.0685C3.2675 15.2493 2.6535 15.5866 2.6535 16.0694C2.6535 16.2205 2.6535 16.5335 3.40198 16.819C3.82859 16.9811 4.04354 17.4595 3.8804 17.8861C3.75473 18.2157 3.44057 18.4185 3.10766 18.4185Z" fill="#404040"/>
<path d="M2.81334 18.3645L2.70639 18.6448L2.708 18.6454L2.81334 18.3645ZM4.23314 13.4327L4.19566 13.1349L4.18871 13.136L4.23314 13.4327ZM5.17343 14.1271L5.47018 14.0831L5.47006 14.0823L5.17343 14.1271ZM4.47786 15.0685L4.52218 15.3652L4.52282 15.3651L4.47786 15.0685ZM3.40198 16.819L3.29507 17.0993L3.29546 17.0995L3.40198 16.819ZM3.8804 17.8861L3.60019 17.7789L3.60008 17.7792L3.8804 17.8861ZM3.10766 18.1185C3.04582 18.1185 2.98227 18.1075 2.91868 18.0836L2.708 18.6454C2.83842 18.6943 2.97329 18.7185 3.10766 18.7185V18.1185ZM2.92028 18.0842C2.18699 17.8044 1.78971 17.4209 1.57186 17.0605C1.3516 16.6962 1.3 16.3308 1.3 16.0694H0.7C0.7 16.4066 0.766351 16.8879 1.0584 17.3709C1.35286 17.858 1.86225 18.3227 2.70639 18.6448L2.92028 18.0842ZM1.3 16.0694C1.3 15.6388 1.42132 15.1612 1.82937 14.7426C2.24248 14.3188 2.98042 13.9236 4.27757 13.7294L4.18871 13.136C2.81381 13.3419 1.93518 13.7745 1.39973 14.3238C0.859224 14.8783 0.7 15.5191 0.7 16.0694H1.3ZM4.27062 13.7303C4.57296 13.6923 4.83407 13.8894 4.87681 14.172L5.47006 14.0823C5.3761 13.4609 4.80385 13.0584 4.19567 13.135L4.27062 13.7303ZM4.87668 14.1712C4.9196 14.4604 4.72064 14.7283 4.4329 14.7719L4.52282 15.3651C5.13679 15.2721 5.56175 14.7 5.47018 14.0831L4.87668 14.1712ZM4.43354 14.7718C3.81556 14.8641 3.31834 15.0002 2.96746 15.1927C2.61426 15.3866 2.3535 15.6733 2.3535 16.0694H2.9535C2.9535 15.9828 2.99974 15.8594 3.25613 15.7187C3.51484 15.5767 3.9298 15.4537 4.52218 15.3652L4.43354 14.7718ZM2.3535 16.0694C2.3535 16.1597 2.35272 16.3549 2.50179 16.5666C2.6431 16.7672 2.89159 16.9454 3.29507 17.0993L3.5089 16.5387C3.16389 16.4071 3.03814 16.2861 2.99233 16.2211C2.95428 16.167 2.9535 16.1302 2.9535 16.0694H2.3535ZM3.29546 17.0995C3.56717 17.2027 3.70396 17.5076 3.60019 17.7789L4.1606 17.9933C4.38312 17.4114 4.09 16.7595 3.50851 16.5386L3.29546 17.0995ZM3.60008 17.7792C3.52021 17.9887 3.32027 18.1185 3.10766 18.1185V18.7185C3.56086 18.7185 3.98925 18.4427 4.16071 17.993L3.60008 17.7792Z" fill="#404040" mask="url(#path-12-outside-6_37_1067)"/>
</g>
</g>
</g>
</svg>
