<svg width="20" height="18" viewBox="0 0 20 18" fill="none" xmlns="http://www.w3.org/2000/svg">
<path fill-rule="evenodd" clip-rule="evenodd" d="M10 0.0416718C7.8139 0.0416718 6.04169 1.81388 6.04169 4C6.04169 6.18613 7.8139 7.95834 10 7.95834C12.1862 7.95834 13.9584 6.18613 13.9584 4C13.9584 1.81388 12.1862 0.0416718 10 0.0416718ZM7.29169 4C7.29169 2.50423 8.50427 1.29167 10 1.29167C11.4958 1.29167 12.7084 2.50423 12.7084 4C12.7084 5.49578 11.4958 6.70834 10 6.70834C8.50427 6.70834 7.29169 5.49578 7.29169 4Z" fill="#1C274C"/>
<path d="M15 1.70833C14.6548 1.70833 14.375 1.98815 14.375 2.33333C14.375 2.6785 14.6548 2.95833 15 2.95833C16.1471 2.95833 16.875 3.7131 16.875 4.41666C16.875 5.12022 16.1471 5.87499 15 5.87499C14.6548 5.87499 14.375 6.15482 14.375 6.49999C14.375 6.84517 14.6548 7.12499 15 7.12499C16.6143 7.12499 18.125 6.01429 18.125 4.41666C18.125 2.81904 16.6143 1.70833 15 1.70833Z" fill="#1C274C"/>
<path d="M5.625 2.33333C5.625 1.98815 5.34517 1.70833 5 1.70833C3.38565 1.70833 1.875 2.81904 1.875 4.41666C1.875 6.01429 3.38565 7.12499 5 7.12499C5.34517 7.12499 5.625 6.84517 5.625 6.49999C5.625 6.15482 5.34517 5.87499 5 5.87499C3.85292 5.87499 3.125 5.12022 3.125 4.41666C3.125 3.7131 3.85292 2.95833 5 2.95833C5.34517 2.95833 5.625 2.6785 5.625 2.33333Z" fill="#1C274C"/>
<path fill-rule="evenodd" clip-rule="evenodd" d="M10 9.20833C8.51308 9.20833 7.13871 9.60899 6.11777 10.2896C5.10122 10.9673 4.375 11.9722 4.375 13.1667C4.375 14.3612 5.10122 15.366 6.11777 16.0437C7.13871 16.7243 8.51308 17.125 10 17.125C11.4869 17.125 12.8612 16.7243 13.8822 16.0437C14.8987 15.366 15.625 14.3612 15.625 13.1667C15.625 11.9722 14.8987 10.9673 13.8822 10.2896C12.8612 9.60899 11.4869 9.20833 10 9.20833ZM5.625 13.1667C5.625 12.5202 6.01807 11.8584 6.81115 11.3297C7.59987 10.8038 8.7255 10.4583 10 10.4583C11.2745 10.4583 12.4002 10.8038 13.1888 11.3297C13.9819 11.8584 14.375 12.5202 14.375 13.1667C14.375 13.8132 13.9819 14.4749 13.1888 15.0037C12.4002 15.5295 11.2745 15.875 10 15.875C8.7255 15.875 7.59987 15.5295 6.81115 15.0037C6.01807 14.4749 5.625 13.8132 5.625 13.1667Z" fill="#1C274C"/>
<path d="M16.0561 10.5328C16.1301 10.1956 16.4634 9.98225 16.8006 10.0562C17.6021 10.2319 18.3244 10.5494 18.8606 10.9883C19.3965 11.4267 19.7916 12.0293 19.7916 12.75C19.7916 13.4707 19.3965 14.0733 18.8606 14.5118C18.3244 14.9506 17.6021 15.2681 16.8006 15.4438C16.4634 15.5178 16.1301 15.3044 16.0561 14.9673C15.9822 14.6301 16.1956 14.2968 16.5327 14.2228C17.1931 14.078 17.7207 13.8293 18.0691 13.5443C18.4178 13.259 18.5416 12.9803 18.5416 12.75C18.5416 12.5198 18.4178 12.241 18.0691 11.9557C17.7207 11.6707 17.1931 11.422 16.5327 11.2772C16.1956 11.2033 15.9822 10.8699 16.0561 10.5328Z" fill="#1C274C"/>
<path d="M3.19944 10.0562C3.5366 9.98225 3.86987 10.1956 3.9438 10.5328C4.01775 10.8699 3.80435 11.2033 3.46719 11.2772C2.80689 11.422 2.27919 11.6707 1.93091 11.9557C1.58217 12.241 1.45831 12.5198 1.45831 12.75C1.45831 12.9803 1.58217 13.259 1.93091 13.5443C2.27919 13.8293 2.80689 14.078 3.46719 14.2228C3.80435 14.2968 4.01775 14.6301 3.9438 14.9673C3.86987 15.3044 3.5366 15.5178 3.19944 15.4438C2.39786 15.2681 1.67556 14.9506 1.1393 14.5118C0.60352 14.0733 0.208313 13.4707 0.208313 12.75C0.208313 12.0293 0.60352 11.4267 1.1393 10.9883C1.67556 10.5494 2.39786 10.2319 3.19944 10.0562Z" fill="#1C274C"/>
</svg>
