<svg xmlns="http://www.w3.org/2000/svg" width="24" height="21" viewBox="0 0 24 21" fill="none">
  <path d="M5.47753 12.9229C3.4906 12.9229 1.87988 11.3162 1.87988 9.33421C1.87988 7.35225 3.4906 5.74556 5.47753 5.74556H6.66444M5.47753 12.9229C5.47753 12.9229 6.71988 17.2269 7.15988 18.5423C7.59988 19.8578 9.79989 19.8578 9.79989 18.1039C9.79989 16.3499 9.79989 15.3871 9.79989 13.1517M5.47753 12.9229H6.66444M9.79989 13.1517C12.3059 13.7226 14.6282 15.2438 16.8626 16.3583C21.3401 18.5914 21.2397 11.5091 21.2397 9.33421C21.2397 7.15934 21.3401 0.0769964 16.8626 2.31016C14.0601 3.70791 11.1193 5.74556 7.85136 5.74556H6.66444M9.79989 13.1517C9.16277 13.0066 8.51379 12.9229 7.85136 12.9229H6.66444M6.66444 12.9229V5.74556" stroke="#404040" stroke-width="2"/>
  <path d="M22.1201 7.16003V11.56" stroke="#404040" stroke-width="2" stroke-linecap="round" stroke-linejoin="round"/>
</svg>