<svg width="25" height="25" viewBox="0 0 38 38" fill="none" xmlns="http://www.w3.org/2000/svg">
<rect width="25" height="25" fill="#D4D4D4"/>
<g id="Frame 1" clip-path="url(#clip0_0_1)">
<rect width="1920" height="1080" transform="translate(-27 -260)" fill="white"/>
<rect id="Rectangle 311" x="-27" y="-260" width="1920" height="1080" fill="#181818"/>
<g id="Frame" clip-path="url(#clip1_0_1)">
<g id="Group">
<path id="Vector" d="M12.2349 16.1114C12.5811 18.3617 14.3199 21.2256 17.1759 22.2327C18.3483 22.6418 19.6307 22.6497 20.803 22.2248C23.6119 21.2098 25.4058 18.3538 25.7598 16.1114C26.1375 16.08 26.6332 15.5528 27.1682 13.6566C27.8999 11.0681 27.121 10.6826 26.4601 10.7455C26.586 10.3915 26.6804 10.0295 26.7433 9.68334C27.8606 2.97201 24.556 2.74384 24.556 2.74384C24.556 2.74384 24.0053 1.68954 22.5655 0.894877C21.5977 0.320519 20.2523 -0.120084 18.482 0.0294063C17.9077 0.05301 17.3648 0.171029 16.8533 0.336255C16.2003 0.556557 15.6024 0.879141 15.0595 1.2568C14.3986 1.6738 13.7691 2.19308 13.2184 2.78318C12.345 3.68012 11.5661 4.8367 11.2278 6.27653C10.9445 7.35444 11.0075 8.47955 11.2435 9.69121C11.3065 10.0453 11.4009 10.3993 11.5268 10.7534C10.8659 10.6904 10.0869 11.076 10.8187 13.6645C11.3615 15.5528 11.8572 16.08 12.2349 16.1114Z" fill="#646464"/>
<path id="Vector_2" d="M31.9755 24.9155C27.955 23.8926 24.6898 21.5952 24.6898 21.5952L22.1406 29.6598L21.6606 31.1783L21.6528 31.1547L21.2357 32.4451L19.8903 28.6291C23.1949 24.0185 19.2216 24.0657 19.0013 24.0736C18.781 24.0657 14.8077 24.0185 18.1122 28.6291L16.7668 32.4451L16.3498 31.1547L16.3419 31.1783L15.862 29.6598L13.3049 21.5952C13.3049 21.5952 10.0397 23.8926 6.0192 24.9155C3.02152 25.6787 2.8799 29.1406 2.99792 30.8479C2.99792 30.8479 3.17101 33.1689 3.34411 34.1918C3.34411 34.1918 9.19784 37.992 19.0013 37.9998C28.8047 37.9998 34.6584 34.1918 34.6584 34.1918C34.8315 33.1689 35.0046 30.8479 35.0046 30.8479C35.1148 29.1406 34.9731 25.6787 31.9755 24.9155Z" fill="#646464"/>
</g>
</g>
</g>
<defs>
<clipPath id="clip0_0_1">
<rect width="1920" height="1080" fill="white" transform="translate(-27 -260)"/>
</clipPath>
<clipPath id="clip1_0_1">
<rect width="38" height="38" fill="white"/>
</clipPath>
</defs>
</svg>
