<svg width="28" height="28" viewBox="0 0 28 28" fill="none" xmlns="http://www.w3.org/2000/svg">
<path d="M9.74984 4.75C9.74984 4.33579 9.41405 4 8.99984 4C8.58563 4 8.24984 4.33579 8.24984 4.75V6.32926C6.81051 6.44451 5.86561 6.72737 5.17141 7.42157C4.47721 8.11577 4.19435 9.06067 4.0791 10.5H23.9205C23.8053 9.06067 23.5224 8.11577 22.8282 7.42157C22.134 6.72737 21.1891 6.44451 19.7498 6.32926V4.75C19.7498 4.33579 19.414 4 18.9998 4C18.5856 4 18.2498 4.33579 18.2498 4.75V6.2629C17.5845 6.25 16.8388 6.25 15.9998 6.25H11.9998C11.1608 6.25 10.4151 6.25 9.74984 6.2629V4.75Z" fill="#404040"/>
<path fill-rule="evenodd" clip-rule="evenodd" d="M4 14.4641C4 13.6251 4 12.8794 4.0129 12.2141H23.9871C24 12.8794 24 13.6251 24 14.4641V16.4641C24 20.2353 24 22.121 22.8284 23.2925C21.6569 24.4641 19.7712 24.4641 16 24.4641H12C8.22876 24.4641 6.34315 24.4641 5.17157 23.2925C4 22.121 4 20.2353 4 16.4641V14.4641ZM19 16.4641C19.5523 16.4641 20 16.0164 20 15.4641C20 14.9118 19.5523 14.4641 19 14.4641C18.4477 14.4641 18 14.9118 18 15.4641C18 16.0164 18.4477 16.4641 19 16.4641ZM19 20.4641C19.5523 20.4641 20 20.0164 20 19.4641C20 18.9118 19.5523 18.4641 19 18.4641C18.4477 18.4641 18 18.9118 18 19.4641C18 20.0164 18.4477 20.4641 19 20.4641ZM15 15.4641C15 16.0164 14.5523 16.4641 14 16.4641C13.4477 16.4641 13 16.0164 13 15.4641C13 14.9118 13.4477 14.4641 14 14.4641C14.5523 14.4641 15 14.9118 15 15.4641ZM15 19.4641C15 20.0164 14.5523 20.4641 14 20.4641C13.4477 20.4641 13 20.0164 13 19.4641C13 18.9118 13.4477 18.4641 14 18.4641C14.5523 18.4641 15 18.9118 15 19.4641ZM9 16.4641C9.55228 16.4641 10 16.0164 10 15.4641C10 14.9118 9.55228 14.4641 9 14.4641C8.44772 14.4641 8 14.9118 8 15.4641C8 16.0164 8.44772 16.4641 9 16.4641ZM9 20.4641C9.55228 20.4641 10 20.0164 10 19.4641C10 18.9118 9.55228 18.4641 9 18.4641C8.44772 18.4641 8 18.9118 8 19.4641C8 20.0164 8.44772 20.4641 9 20.4641Z" fill="#404040"/>
</svg>
