<svg width="25" height="25" viewBox="0 0 38 38" fill="none" xmlns="http://www.w3.org/2000/svg">
<g id="Frame">
<g id="Group">
<path id="Vector" d="M7.61723 21.4355H2.5045C1.91147 21.4355 1.43359 21.9134 1.43359 22.5065V32.8874C1.43359 33.4804 1.91147 33.9583 2.5045 33.9583H7.61723C8.21026 33.9583 8.68814 33.4804 8.68814 32.8874V22.5065C8.68814 21.9192 8.2045 21.4355 7.61723 21.4355ZM5.06662 25.9552C4.07056 25.9552 3.2645 25.1492 3.2645 24.1646C3.2645 23.1743 4.07056 22.374 5.06662 22.374C6.05693 22.374 6.85723 23.1801 6.85723 24.1646C6.85723 25.1549 6.05117 25.9552 5.06662 25.9552ZM36.4339 26.4562C36.0942 25.6962 35.2075 25.3565 34.459 25.6904L24.4581 30.141C24.0206 30.4231 23.5254 30.5786 23.0072 30.5786H15.7354C15.4245 30.5786 15.1712 30.3252 15.1712 30.0143C15.1712 29.7034 15.4245 29.4501 15.7354 29.4501H23.0015C23.3124 29.4501 23.6175 29.3522 23.8766 29.1737H23.8824C23.9687 29.1162 24.0321 29.0643 24.0839 29.0068C24.389 28.7016 24.5503 28.3101 24.5503 27.8898C24.5503 27.0319 23.8536 26.3295 23.0015 26.3295H18.0903C17.2439 26.3295 16.3918 26.2201 15.5627 25.9955C14.7451 25.7768 13.9506 25.4486 13.2021 25.0225C12.1595 24.4339 11.0073 24.0655 9.81662 23.9401V32.2713L15.0848 34.2577C18.3551 35.4955 22.1321 35.2998 25.2815 33.7165L35.7372 28.4425C36.2497 28.1834 36.5663 27.6652 36.5663 27.0895C36.5663 26.8649 36.5203 26.6519 36.4339 26.4562Z" fill="#646464"/>
<path id="Vector_2" d="M5.0668 23.5027C4.69832 23.5027 4.39893 23.7964 4.39893 24.1649C4.39893 24.5276 4.69832 24.827 5.0668 24.827C5.42953 24.827 5.72893 24.5334 5.72893 24.1649C5.72317 23.8021 5.42953 23.5027 5.0668 23.5027ZM24.8441 14.5612C24.8441 15.0621 25.2529 15.4652 25.748 15.4652C26.2489 15.4652 26.652 15.0564 26.652 14.5612C26.652 14.0661 26.2432 13.6573 25.748 13.6573C25.2471 13.6515 24.8441 14.0603 24.8441 14.5612Z" fill="#646464"/>
<path id="Vector_3" d="M15.1308 15.1944C15.4359 16.1329 14.4687 17.722 15.0329 18.4993C15.6029 19.2881 17.4223 18.8562 18.2053 19.432C18.9826 20.002 19.1323 21.8617 20.0708 22.1668C20.9747 22.4605 22.1838 21.0499 23.1856 21.0499C24.1874 21.0499 25.3965 22.4605 26.3005 22.1668C27.239 21.8617 27.3887 20.002 28.1659 19.432C28.9547 18.862 30.7683 19.2881 31.3441 18.4993C31.9141 17.722 30.9468 16.1271 31.252 15.1944C31.5456 14.2905 33.2729 13.5765 33.2729 12.5747C33.2729 11.5729 31.5456 10.859 31.252 9.95502C30.9468 9.01654 31.9141 7.42745 31.3441 6.65018C30.7741 5.86139 28.9547 6.29321 28.1659 5.71745C27.3887 5.14745 27.239 3.28775 26.3005 2.9826C25.3965 2.68896 24.1874 4.09957 23.1856 4.09957C22.1838 4.09957 20.9747 2.68896 20.0708 2.9826C19.138 3.28775 18.9883 5.14745 18.2053 5.71745C17.4165 6.29321 15.6029 5.86139 15.0329 6.65018C14.4687 7.42745 15.4302 9.0223 15.1308 9.95502C14.8371 10.859 13.1099 11.5729 13.1099 12.5747C13.1099 13.5765 14.8371 14.2905 15.1308 15.1944ZM27.7859 14.5611C27.7859 15.6838 26.8705 16.5993 25.7477 16.5993C24.625 16.5993 23.7096 15.6838 23.7096 14.5611C23.7096 13.4384 24.625 12.5229 25.7477 12.5229C26.8705 12.5229 27.7859 13.4326 27.7859 14.5611ZM25.028 8.70563C25.1124 8.58582 25.2399 8.50335 25.3837 8.47553C25.5276 8.44771 25.6766 8.47671 25.7996 8.55643C25.9225 8.63615 26.0098 8.7604 26.043 8.90308C26.0763 9.04577 26.053 9.19581 25.978 9.32169L21.3547 16.4381C21.3144 16.5006 21.2622 16.5546 21.2009 16.5969C21.1397 16.6392 21.0707 16.669 20.9979 16.6845C20.9252 16.7 20.85 16.701 20.7769 16.6873C20.7037 16.6737 20.634 16.6457 20.5717 16.605C20.5089 16.5649 20.4548 16.5127 20.4123 16.4515C20.3699 16.3903 20.3401 16.3212 20.3245 16.2484C20.309 16.1756 20.3081 16.1004 20.3219 16.0272C20.3356 15.954 20.3638 15.8842 20.4047 15.822L25.028 8.70563ZM20.6408 8.54442C21.7635 8.54442 22.679 9.45987 22.679 10.5826C22.679 11.7053 21.7635 12.6208 20.6408 12.6208C19.518 12.6208 18.6026 11.7053 18.6026 10.5826C18.5968 9.45987 19.5123 8.54442 20.6408 8.54442Z" fill="#646464"/>
<path id="Vector_4" d="M20.6408 11.4924C21.1417 11.4924 21.5447 11.0894 21.5447 10.5885C21.5447 10.0876 21.1359 9.68457 20.6408 9.68457C20.1398 9.68457 19.7368 10.0934 19.7368 10.5885C19.7368 11.0837 20.1398 11.4924 20.6408 11.4924Z" fill="#646464"/>
</g>
</g>
</svg>
