<svg width="38" height="38" viewBox="0 0 38 38" fill="none" xmlns="http://www.w3.org/2000/svg">
<rect width="38" height="38" fill="#D4D4D4"/>
<g id="Frame 1" clip-path="url(#clip0_0_1)">
<rect width="1920" height="1080" transform="translate(-27 -186)" fill="white"/>
<rect id="Rectangle 311" x="-27" y="-186" width="1920" height="1080" fill="#181818"/>
<g id="Frame">
<g id="Group">
<path id="Vector" d="M15.299 2.84985H5.20522C3.90653 2.84985 2.8501 3.90629 2.8501 5.20498V11.2612C2.8501 12.5602 3.90653 13.6166 5.20522 13.6166H15.299C16.5979 13.6166 17.6543 12.5602 17.6543 11.2612V5.20498C17.6543 3.90629 16.5979 2.84985 15.299 2.84985ZM15.299 16.3081H5.20522C3.90653 16.3081 2.8501 17.3645 2.8501 18.6635V32.7947C2.8501 34.0934 3.90653 35.1499 5.20522 35.1499H15.299C16.5979 35.1499 17.6543 34.0934 17.6543 32.7947V18.6635C17.6543 17.3645 16.5979 16.3081 15.299 16.3081ZM32.795 24.3831H22.7012C21.4023 24.3831 20.3458 25.4395 20.3458 26.7385V32.7947C20.3458 34.0934 21.4023 35.1499 22.7012 35.1499H32.795C34.0937 35.1499 35.1501 34.0934 35.1501 32.7947V26.7385C35.1501 25.4395 34.0937 24.3831 32.795 24.3831ZM32.795 2.84985H22.7012C21.4023 2.84985 20.3458 3.90629 20.3458 5.20498V19.3362C20.3458 20.6352 21.4023 21.6916 22.7012 21.6916H32.795C34.0937 21.6916 35.1501 20.6352 35.1501 19.3362V5.20498C35.1501 3.90629 34.0937 2.84985 32.795 2.84985Z" fill="#646464"/>
</g>
</g>
</g>
<defs>
<clipPath id="clip0_0_1">
<rect width="1920" height="1080" fill="white" transform="translate(-27 -186)"/>
</clipPath>
</defs>
</svg>
