<svg width="24" height="24" viewBox="0 0 24 24" fill="none" xmlns="http://www.w3.org/2000/svg">
<path d="M15.75 9.34501L13.0575 12L15.75 14.655C15.8249 14.7252 15.8846 14.8099 15.9255 14.9041C15.9663 14.9983 15.9874 15.0999 15.9874 15.2025C15.9874 15.3052 15.9663 15.4067 15.9255 15.5009C15.8846 15.5951 15.8249 15.6798 15.75 15.75C15.6799 15.8195 15.5968 15.8745 15.5054 15.9118C15.414 15.9492 15.3162 15.9681 15.2175 15.9675C15.0207 15.9667 14.8322 15.8886 14.6925 15.75L12 13.0575L9.34497 15.75C9.20528 15.8886 9.01673 15.9667 8.81998 15.9675C8.72127 15.9681 8.62342 15.9492 8.53205 15.9118C8.44067 15.8745 8.35756 15.8195 8.28748 15.75C8.14779 15.6095 8.06938 15.4194 8.06938 15.2213C8.06938 15.0231 8.14779 14.833 8.28748 14.6925L10.9425 12L8.28748 9.34501C8.16461 9.20153 8.1004 9.01697 8.10769 8.82821C8.11498 8.63946 8.19323 8.4604 8.3268 8.32683C8.46037 8.19326 8.63943 8.11501 8.82818 8.10772C9.01694 8.10043 9.2015 8.16464 9.34497 8.28751L12 10.9425L14.655 8.28751C14.7244 8.21561 14.8073 8.15809 14.899 8.11823C14.9907 8.07838 15.0893 8.05697 15.1892 8.05523C15.2892 8.05349 15.3885 8.07145 15.4815 8.10809C15.5745 8.14472 15.6593 8.19932 15.7312 8.26875C15.8031 8.33819 15.8606 8.42111 15.9005 8.51277C15.9403 8.60444 15.9618 8.70306 15.9635 8.803C15.9652 8.90294 15.9473 9.00224 15.9106 9.09524C15.874 9.18823 15.8194 9.27311 15.75 9.34501ZM19.425 19.425C17.9565 20.8933 16.0856 21.8933 14.0488 22.2983C12.012 22.7034 9.90087 22.4954 7.98231 21.7006C6.06375 20.9059 4.42393 19.5601 3.27023 17.8334C2.11652 16.1067 1.50073 14.0767 1.50073 12C1.50073 9.92335 2.11652 7.89332 3.27023 6.16663C4.42393 4.43994 6.06375 3.09412 7.98231 2.29937C9.90087 1.50462 12.012 1.29662 14.0488 1.70168C16.0856 2.10674 17.9565 3.10666 19.425 4.575C20.4001 5.55003 21.1736 6.70759 21.7014 7.98158C22.2291 9.25557 22.5007 10.621 22.5007 12C22.5007 13.379 22.2291 14.7444 21.7014 16.0184C21.1736 17.2924 20.4001 18.45 19.425 19.425ZM18.3675 5.6325C17.1076 4.37696 15.5039 3.52289 13.7589 3.17816C12.0139 2.83342 10.2059 3.01348 8.5632 3.69558C6.92049 4.37769 5.51673 5.53126 4.52918 7.01062C3.54162 8.48999 3.01457 10.2288 3.01457 12.0075C3.01457 13.7862 3.54162 15.525 4.52918 17.0044C5.51673 18.4838 6.92049 19.6373 8.5632 20.3194C10.2059 21.0015 12.0139 21.1816 13.7589 20.8369C15.5039 20.4921 17.1076 19.6381 18.3675 18.3825C19.2065 17.5464 19.8722 16.5528 20.3265 15.4589C20.7807 14.3649 21.0146 13.192 21.0146 12.0075C21.0146 10.823 20.7807 9.6501 20.3265 8.55614C19.8722 7.46217 19.2065 6.46864 18.3675 5.6325Z" fill="#FF0000"/>
</svg>
