<svg xmlns="http://www.w3.org/2000/svg" width="24" height="24" viewBox="0 0 24 24" fill="none">
  <path d="M17 11L12 16M12 16L7 11M12 16L12 2" stroke="#404040" stroke-width="2" stroke-linecap="round" stroke-linejoin="round"/>
  <path fill-rule="evenodd" clip-rule="evenodd" d="M5 6.296C5 5.62866 4.36871 5.13099 3.74865 5.37771C0.806956 6.54824 0 8.98146 0 13.7057C0 21.3595 2.118 22.9999 12 22.9999C21.882 22.9999 24 21.3595 24 13.7057C24 8.98146 23.193 6.54824 20.2513 5.37771C19.6313 5.13099 19 5.62866 19 6.296C19 6.74846 19.3009 7.13662 19.714 7.32119C20.0273 7.46119 20.2776 7.61212 20.4811 7.7697C21.4189 8.49607 22 9.88206 22 13.7057C22 17.5294 21.4189 18.9154 20.4811 19.6418C19.9576 20.0472 19.1238 20.4087 17.7047 20.653C16.2861 20.8972 14.436 20.9999 12 20.9999C9.56404 20.9999 7.71385 20.8972 6.2953 20.653C4.87622 20.4087 4.04241 20.0472 3.51891 19.6418C2.58107 18.9154 2 17.5294 2 13.7057C2 9.88206 2.58107 8.49607 3.51891 7.7697C3.72237 7.61212 3.97269 7.46119 4.28602 7.32119C4.69912 7.13662 5 6.74846 5 6.296Z" fill="#404040"/>
</svg>