<svg width="17" height="18" viewBox="0 0 17 18" fill="none" xmlns="http://www.w3.org/2000/svg">
<path d="M7.16868 7.16873C8.87213 7.16873 10.253 5.78781 10.253 4.08436C10.253 2.38092 8.87213 1 7.16868 1C5.46524 1 4.08432 2.38092 4.08432 4.08436C4.08432 5.78781 5.46524 7.16873 7.16868 7.16873Z" stroke="black" stroke-width="1.4"/>
<path d="M14.1085 6.15948L13.7085 6.5772C13.9321 6.79133 14.2848 6.79133 14.5084 6.5772L14.1085 6.15948ZM13.7125 8.52638C13.3903 8.28989 13.0352 7.99456 12.7664 7.68373C12.4824 7.3554 12.3735 7.10018 12.3735 6.93472H11.2169C11.2169 7.52836 11.5571 8.0537 11.8915 8.44033C12.2411 8.84453 12.6736 9.19862 13.0283 9.45894L13.7125 8.52638ZM12.3735 6.93472C12.3735 6.49053 12.576 6.29725 12.7528 6.23527C12.9458 6.16761 13.3033 6.18918 13.7085 6.5772L14.5084 5.74177C13.8728 5.1331 13.0736 4.89718 12.3702 5.14376C11.6506 5.39601 11.2169 6.08869 11.2169 6.93472H12.3735ZM15.1886 9.45894C15.5434 9.19862 15.9759 8.84453 16.3254 8.44033C16.6599 8.0537 17.0001 7.52836 17.0001 6.93471H15.8434C15.8434 7.10019 15.7346 7.35548 15.4506 7.68373C15.1818 7.99464 14.8267 8.28989 14.5044 8.52638L15.1886 9.45894ZM17.0001 6.93471C17.0001 6.08869 16.5663 5.39601 15.8467 5.14375C15.1434 4.89718 14.3442 5.1331 13.7085 5.74177L14.5084 6.5772C14.9137 6.18918 15.2711 6.16761 15.4641 6.23527C15.6409 6.29725 15.8434 6.49053 15.8434 6.93471H17.0001ZM13.0283 9.45894C13.3126 9.66744 13.6316 9.92722 14.1085 9.92722V8.77059C14.0897 8.77059 14.078 8.77051 14.0361 8.74838C13.9698 8.71337 13.887 8.65438 13.7125 8.52638L13.0283 9.45894ZM14.5044 8.52638C14.3299 8.65438 14.2471 8.71337 14.1809 8.74838C14.1389 8.77051 14.1273 8.77059 14.1085 8.77059V9.92722C14.5853 9.92722 14.9044 9.66744 15.1886 9.45894L14.5044 8.52638Z" fill="black"/>
<path d="M13.3355 13.3373C13.3375 13.2107 13.3375 13.0821 13.3375 12.9518C13.3375 11.0354 10.5756 9.48184 7.16873 9.48184C3.76183 9.48184 1 11.0354 1 12.9518C1 14.8681 1 16.4217 7.16873 16.4217C8.88903 16.4217 10.1296 16.3008 11.0242 16.085" stroke="black" stroke-width="1.4" stroke-linecap="round"/>
</svg>
