<svg width="25" height="25" viewBox="0 0 38 38" fill="none" xmlns="http://www.w3.org/2000/svg">
<rect width="25" height="25" fill="#D4D4D4"/>
<g id="Frame 1" clip-path="url(#clip0_0_1)">
<rect width="1920" height="1080" transform="translate(-27 -774)" fill="white"/>
<rect id="Rectangle 311" x="-27" y="-774" width="1920" height="1080" fill="#181818"/>
<g id="Frame">
<g id="Group">
<path id="Vector" fill-rule="evenodd" clip-rule="evenodd" d="M29.5982 22.8951H21.5243C22.1906 20.8959 22.5447 19.2133 22.603 17.7785C22.7408 14.3938 21.1426 13.0542 19.7777 12.5257C19.7207 12.5033 19.6613 12.4873 19.6006 12.4782C18.5431 12.3111 18.1666 12.8086 17.9171 13.3709L17.8843 13.4447C17.8478 13.5254 17.8239 13.6113 17.8136 13.6994C17.4761 16.5868 16.2431 19.296 14.2877 21.4471V37.5776C14.5058 37.6575 14.7286 37.724 14.9549 37.7767C15.0161 37.7911 15.0788 37.7989 15.1417 37.7998C15.8176 37.807 16.6232 37.8107 17.5524 37.8107C18.4792 37.8107 19.5287 37.8069 20.6934 37.7998H28.2995C28.7442 37.7999 29.181 37.6818 29.5652 37.4577C29.9493 37.2336 30.267 36.9114 30.4857 36.5242C30.7045 36.137 30.8165 35.6986 30.8102 35.2539C30.8039 34.8092 30.6796 34.3742 30.45 33.9933C30.9577 33.6087 31.3 33.0454 31.4074 32.4176C31.5148 31.7899 31.3793 31.1448 31.0284 30.6133C31.521 30.1956 31.8335 29.6038 31.9007 28.9614C31.9679 28.319 31.7846 27.6754 31.389 27.1648C31.7359 26.812 31.9708 26.3647 32.0642 25.8789C32.1576 25.3931 32.1054 24.8905 31.914 24.4343C31.7227 23.9781 31.4007 23.5887 30.9887 23.3149C30.5767 23.0411 30.0929 22.8951 29.5982 22.8954V22.8951ZM12.5997 8.41414C12.5486 8.25659 12.4533 8.11704 12.3251 8.01209C12.197 7.90714 12.0414 7.8412 11.8769 7.82212L9.51831 7.55077L8.53197 5.39294C8.46343 5.24201 8.35287 5.11402 8.21352 5.02426C8.07416 4.9345 7.91191 4.88676 7.74615 4.88676C7.58039 4.88676 7.41813 4.9345 7.27878 5.02426C7.13942 5.11402 7.02887 5.24201 6.96032 5.39294L5.97399 7.55077L3.6155 7.82212C3.45096 7.84101 3.29532 7.9068 3.16711 8.01165C3.03891 8.11649 2.94354 8.25598 2.89237 8.4135C2.8412 8.57102 2.83638 8.73992 2.87849 8.9001C2.9206 9.06028 3.00787 9.20498 3.1299 9.31696L4.87808 10.9224L4.40745 13.2491C4.37494 13.4113 4.38965 13.5795 4.44983 13.7336C4.51001 13.8877 4.61313 14.0213 4.74697 14.1186C4.88081 14.2159 5.03974 14.2727 5.20491 14.2824C5.37007 14.292 5.53455 14.2541 5.67881 14.1731L7.74593 13.006L9.81349 14.1731C9.9577 14.2545 10.1223 14.2927 10.2876 14.2832C10.4529 14.2737 10.612 14.2169 10.746 14.1196C10.88 14.0222 10.9831 13.8884 11.0432 13.7341C11.1033 13.5798 11.1177 13.4115 11.0848 13.2492L10.6142 10.9225L12.3624 9.31703C12.4843 9.2051 12.5715 9.0605 12.6135 8.90044C12.6556 8.74038 12.6508 8.57161 12.5996 8.41421L12.5997 8.41414ZM35.1078 8.41414C35.159 8.57152 35.1638 8.74029 35.1218 8.90035C35.0798 9.06041 34.9926 9.20502 34.8707 9.31696L33.1224 10.9224L33.593 13.2491C33.6259 13.4114 33.6114 13.5797 33.5513 13.734C33.4913 13.8883 33.3881 14.0221 33.2542 14.1195C33.1202 14.2168 32.9611 14.2736 32.7958 14.2831C32.6305 14.2926 32.4659 14.2544 32.3217 14.173L30.2546 13.0059L28.1873 14.173C28.0431 14.2544 27.8786 14.2926 27.7132 14.2832C27.5479 14.2737 27.3888 14.2169 27.2548 14.1195C27.1209 14.0222 27.0177 13.8884 26.9576 13.7341C26.8976 13.5797 26.8831 13.4114 26.916 13.2491L27.3866 10.9224L25.6384 9.31696C25.5164 9.20498 25.4291 9.06028 25.387 8.9001C25.3449 8.73992 25.3497 8.57102 25.4009 8.4135C25.4521 8.25598 25.5474 8.11649 25.6756 8.01165C25.8039 7.9068 25.9595 7.84101 26.124 7.82212L28.4818 7.55077L29.4686 5.39294C29.5371 5.24202 29.6476 5.11404 29.787 5.02428C29.9263 4.93453 30.0885 4.88679 30.2543 4.88679C30.42 4.88679 30.5823 4.93453 30.7216 5.02428C30.8609 5.11404 30.9715 5.24202 31.04 5.39294L32.0268 7.55077L34.3847 7.82212C34.5492 7.84117 34.7048 7.90709 34.833 8.01205C34.9611 8.11701 35.0564 8.25657 35.1075 8.41414H35.1078ZM24.8156 5.17573C24.7644 5.01799 24.6691 4.87821 24.541 4.77288C24.4129 4.66756 24.2573 4.60109 24.0926 4.58134L21.0563 4.2349L19.7859 1.45286C19.7166 1.30278 19.6058 1.17569 19.4665 1.08661C19.3272 0.997534 19.1654 0.950195 19.0001 0.950195C18.8348 0.950195 18.6729 0.997534 18.5337 1.08661C18.3944 1.17569 18.2836 1.30278 18.2143 1.45286L16.9437 4.23468L13.9076 4.58112C13.7431 4.60041 13.5877 4.66647 13.4597 4.77145C13.3317 4.87643 13.2364 5.01593 13.1853 5.1734C13.1342 5.33086 13.1293 5.49969 13.1713 5.65985C13.2132 5.82 13.3002 5.96477 13.422 6.07696L15.6729 8.1448L15.0669 11.1398C15.0341 11.3021 15.0487 11.4703 15.1088 11.6246C15.1689 11.7788 15.2721 11.9125 15.406 12.0098C15.5399 12.1071 15.699 12.1639 15.8643 12.1734C16.0296 12.1828 16.1941 12.1446 16.3383 12.0633L19.0001 10.5618L21.6619 12.0634C21.806 12.1447 21.9705 12.1829 22.1358 12.1735C22.3011 12.164 22.4601 12.1072 22.594 12.0099C22.728 11.9126 22.8311 11.7789 22.8912 11.6247C22.9514 11.4705 22.9659 11.3022 22.9331 11.1399L22.3272 8.14495L24.5782 6.07696C24.7001 5.96529 24.7873 5.82094 24.8294 5.66112C24.8715 5.5013 24.8668 5.33273 24.8158 5.17551L24.8156 5.17573ZM12.5598 23.0514C12.4077 22.8095 12.1967 22.6101 11.9466 22.4719C11.6965 22.3337 11.4154 22.2611 11.1296 22.261H5.16642C4.71814 22.2614 4.28833 22.4396 3.97131 22.7565C3.65428 23.0734 3.47593 23.5032 3.4754 23.9515V36.1192C3.47578 36.5677 3.65404 36.9977 3.97106 37.3148C4.28808 37.632 4.71797 37.8105 5.16642 37.8111H11.1296C11.4153 37.811 11.6963 37.7384 11.9464 37.6003C12.1965 37.4622 12.4075 37.263 12.5598 37.0212V23.0514ZM5.66052 25.4344C5.66052 25.2053 5.75154 24.9855 5.91356 24.8235C6.07559 24.6615 6.29533 24.5705 6.52446 24.5705H7.15852C7.38766 24.5705 7.6074 24.6615 7.76942 24.8235C7.93144 24.9855 8.02246 25.2053 8.02246 25.4344C8.02246 25.6636 7.93144 25.8833 7.76942 26.0453C7.6074 26.2073 7.38766 26.2984 7.15852 26.2984H6.52454C6.41107 26.2984 6.29872 26.276 6.1939 26.2326C6.08907 26.1892 5.99382 26.1256 5.91359 26.0454C5.83336 25.9651 5.76971 25.8699 5.72629 25.7651C5.68287 25.6602 5.66052 25.5479 5.66052 25.4344Z" fill="#646464"/>
</g>
</g>
</g>
<defs>
<clipPath id="clip0_0_1">
<rect width="1920" height="1080" fill="white" transform="translate(-27 -774)"/>
</clipPath>
</defs>
</svg>
