<svg xmlns="http://www.w3.org/2000/svg" width="18" height="18" viewBox="0 0 18 18" fill="none">
  <g clip-path="url(#clip0_86_229)">
    <path d="M17.8647 14.5212L17.8647 14.5212C18.0153 14.6718 18.0999 14.8761 18.0999 15.0891C18.0999 15.3021 18.0153 15.5064 17.8647 15.657C17.7141 15.8076 17.5098 15.8922 17.2968 15.8922C17.0838 15.8922 16.8795 15.8076 16.7289 15.657L10.6398 9.56793C10.6398 9.56793 10.6398 9.56793 10.6398 9.56793C10.5652 9.49335 10.506 9.40481 10.4657 9.30737C10.4253 9.20992 10.4045 9.10548 10.4045 9C10.4045 8.89452 10.4253 8.79008 10.4657 8.69264C10.506 8.59519 10.5652 8.50665 10.6398 8.43208C10.6398 8.43207 10.6398 8.43207 10.6398 8.43207L16.7288 2.34308L17.8647 14.5212ZM17.8647 14.5212L12.3436 9.00007L17.8647 3.47898C17.8647 3.47898 17.8647 3.47897 17.8647 3.47897C17.977 3.36665 18.0536 3.22354 18.0846 3.06774C18.1156 2.91193 18.0997 2.75043 18.0389 2.60367C17.9781 2.4569 17.8751 2.33145 17.743 2.2432C17.6109 2.15495 17.4556 2.10786 17.2968 2.10788M17.8647 14.5212L17.2968 2.10788M17.2968 2.10788C17.1913 2.10775 17.0868 2.12846 16.9894 2.1688C16.8919 2.20915 16.8034 2.26835 16.7289 2.34301L17.2969 2.10788C17.2969 2.10788 17.2968 2.10788 17.2968 2.10788ZM1.27093 3.20092C1.12031 3.05031 0.916033 2.9657 0.70303 2.9657C0.490028 2.9657 0.285751 3.05031 0.135136 3.20092C-0.01548 3.35154 -0.100096 3.55582 -0.100096 3.76882L-0.100096 14.2313C-0.100096 14.4443 -0.01548 14.6486 0.135134 14.7992C0.285751 14.9498 0.490028 15.0344 0.70303 15.0344C0.916033 15.0344 1.12031 14.9498 1.27093 14.7992C1.42154 14.6486 1.50616 14.4443 1.50616 14.2313L1.50616 3.76882C1.50616 3.55582 1.42154 3.35154 1.27093 3.20092Z" fill="black" stroke="black" stroke-width="0.2"/>
    <path d="M6.25455 9.00008L11.7757 14.5212C11.9263 14.6718 12.0109 14.8761 12.0109 15.0891C12.0109 15.1946 11.9901 15.299 11.9498 15.3964C11.9094 15.4939 11.8502 15.5824 11.7757 15.657C11.7011 15.7316 11.6125 15.7907 11.5151 15.8311C11.4177 15.8715 11.3132 15.8922 11.2077 15.8922C10.9947 15.8922 10.7905 15.8076 10.6398 15.657L4.55078 9.56794C4.55078 9.56794 4.55078 9.56794 4.55078 9.56794C4.47619 9.49336 4.41703 9.40482 4.37666 9.30738C4.33629 9.20993 4.31552 9.10549 4.31552 9.00001C4.31552 8.89454 4.33629 8.79009 4.37666 8.69265C4.41703 8.5952 4.47619 8.50666 4.55078 8.43209C4.55078 8.43209 4.55078 8.43208 4.55078 8.43208L10.6398 2.3431L6.25455 9.00008ZM6.25455 9.00008L11.7756 3.47891C11.8879 3.36659 11.9644 3.22349 11.9954 3.0677C12.0264 2.91191 12.0105 2.75043 11.9497 2.60368C11.8889 2.45693 11.786 2.3315 11.6539 2.24325C11.5218 2.15503 11.3666 2.10792 11.2078 2.10789C11.2078 2.10789 11.2077 2.10789 11.2077 2.10789L11.2077 2.20789L6.25455 9.00008Z" fill="black" stroke="black" stroke-width="0.2"/>
  </g>
  <defs>
    <clipPath id="clip0_86_229">
      <rect width="18" height="18" fill="white" transform="matrix(-1 0 0 -1 18 18)"/>
    </clipPath>
  </defs>
</svg>