<svg width="25" height="25" viewBox="0 0 38 38" fill="none" xmlns="http://www.w3.org/2000/svg">
<path d="M17.019 20.5019H5.52567C4.615 20.5019 3.86984 21.247 3.86984 22.1577V34.5854C3.86984 35.4961 4.615 36.2411 5.52567 36.2411H17.2123C17.6018 36.2411 17.6018 35.8227 17.6018 35.8227V21.0646C17.6017 21.0646 17.6017 20.5019 17.019 20.5019ZM32.4745 20.5019H20.9928C20.2935 20.5019 20.3982 21.2302 20.3982 21.2302V35.8362C20.3982 35.8362 20.3925 36.2408 20.8132 36.2408H32.4742C33.3849 36.2408 34.13 35.4957 34.13 34.5851V22.1577C34.1303 21.247 33.3851 20.5019 32.4745 20.5019ZM17.6017 10.7236C17.6017 10.7236 17.6017 10.1625 17.0472 10.1625H3.65583C2.74516 10.1625 2 10.9076 2 11.8182V16.9868C2 17.8974 2.74516 18.6425 3.65583 18.6425H17.0926C17.6017 18.6425 17.6017 18.201 17.6017 18.201V10.7236ZM34.3442 10.1625H20.9101C20.3985 10.1625 20.3985 10.65 20.3985 10.65V18.2112C20.3985 18.2112 20.3985 18.6425 21.0204 18.6425H34.3442C35.2548 18.6425 36 17.8974 36 16.9868V11.8182C36 10.9076 35.2548 10.1625 34.3442 10.1625ZM11.9698 8.93744C11.2123 8.93744 10.5203 8.87736 9.91351 8.75878C8.37228 8.45767 7.31299 7.87163 6.67507 6.96735C6.1035 6.15693 5.92858 5.15784 6.15502 3.99769C6.55166 1.9679 7.91483 0.850098 9.99312 0.850098C10.433 0.850098 10.916 0.900885 11.4289 1.00113C12.7337 1.25603 14.4026 2.00421 15.8932 3.00246C18.4223 4.69629 18.5474 5.74931 18.4215 6.3941C18.2363 7.34156 17.3507 8.01856 15.7141 8.46395C14.6084 8.76481 13.2436 8.93744 11.9698 8.93744ZM9.99325 3.50394C9.18837 3.50394 8.91176 3.7288 8.75988 4.50653C8.63562 5.1424 8.79233 5.36448 8.84372 5.43747C9.05893 5.74267 9.61952 5.99721 10.4223 6.15392C10.8555 6.2386 11.3908 6.28336 11.9697 6.28336C13.2428 6.28336 14.3643 6.09046 15.1085 5.87947C15.1627 5.86415 15.2468 5.8001 15.1566 5.74641C14.1837 4.95384 12.4038 3.89552 10.9201 3.60563C10.5745 3.53832 10.2625 3.50394 9.99325 3.50394ZM26.0685 8.93744H26.0683C24.7945 8.93744 23.4299 8.76481 22.3241 8.46395C20.6874 8.01868 19.8019 7.34156 19.6167 6.39422C19.4909 5.74943 19.6158 4.69641 22.1451 3.00258C23.6356 2.00433 25.3044 1.25615 26.6094 1.00125C27.1224 0.901005 27.6054 0.850218 28.0449 0.850218C30.1237 0.850218 31.4867 1.96814 31.883 3.99794C32.1097 5.15796 31.9349 6.15705 31.3632 6.96747C30.7253 7.87187 29.6661 8.45779 28.1245 8.7589C27.5179 8.87724 26.826 8.93744 26.0685 8.93744ZM22.9028 5.73001C22.8166 5.78007 22.8583 5.85909 22.9031 5.87199C23.6469 6.08588 24.7803 6.28348 26.0683 6.28348C26.6474 6.28348 27.1825 6.23872 27.6158 6.15404C28.4185 5.99721 28.9793 5.74279 29.1944 5.43759C29.246 5.3646 29.4029 5.14252 29.2782 4.50665C29.1265 3.72892 28.8498 3.50406 28.0448 3.50406C27.7756 3.50406 27.4639 3.53832 27.118 3.60587C25.6342 3.89564 23.8757 4.93732 22.9028 5.73001Z" fill="#646464"/>
</svg>
