<svg width="25" height="25" viewBox="0 0 38 38" fill="none" xmlns="http://www.w3.org/2000/svg">
<rect width="25" height="25" fill="#D4D4D4"/>
<g id="Frame 1" clip-path="url(#clip0_0_1)">
<rect width="1920" height="1080" transform="translate(-27 -334)" fill="white"/>
<rect id="Rectangle 311" x="-27" y="-334" width="1920" height="1080" fill="#181818"/>
<g id="Frame" clip-path="url(#clip1_0_1)">
<g id="Group">
<path id="Vector" d="M9.71783 21.5748C7.85762 20.1586 6.73183 17.9974 6.73183 15.545V8.84679C6.73183 7.68341 7.67451 6.73579 8.83437 6.73156C8.9648 6.72944 11.2697 6.66317 12.8357 4.70517C13.6834 3.64593 15.2929 3.64713 16.1397 4.70517C17.7056 6.66317 20.0105 6.72944 20.141 6.73156C21.3008 6.73579 22.2435 7.68341 22.2435 8.84679V15.545C22.2435 17.9637 21.1442 20.1359 19.2645 21.5695C19.2645 21.5695 19.3792 22.435 19.4196 22.7199L25.6983 24.3599V10.4685C25.6983 5.21155 21.4367 0.94993 16.1798 0.94993H12.7954C7.5385 0.94993 3.27688 5.21155 3.27688 10.4685V24.3599L9.55559 22.7199L9.71783 21.5748ZM36.8511 1.38997C36.51 0.915663 35.8491 0.807645 35.3749 1.14897L31.356 4.03979C31.2198 4.13773 31.1089 4.26667 31.0324 4.41596C30.9558 4.56525 30.9159 4.7306 30.916 4.89836V7.22511H29.1533C28.5692 7.22511 28.0957 7.69864 28.0957 8.28273V11.1735H28.8712C29.4553 11.1735 29.9289 11.6471 29.9289 12.2312C29.9289 12.8152 29.4553 13.2888 28.8712 13.2888H28.0957V15.122H28.8712C29.4553 15.122 29.9289 15.5955 29.9289 16.1796C29.9289 16.7637 29.4553 17.2372 28.8712 17.2372H28.0957V18.0128C28.0957 19.7623 29.519 21.1856 31.2685 21.1856H32.6787C34.4282 21.1856 35.8515 19.7623 35.8515 18.0128V8.28273C35.8515 7.69864 35.378 7.22511 34.7939 7.22511H33.0312V5.44035L36.6101 2.86605C37.0843 2.52507 37.1921 1.86413 36.8511 1.38997ZM12.2357 32.1658C10.7226 31.2196 8.86257 31.1977 8.84424 31.1977C8.37395 31.1949 7.95936 30.8825 7.83034 30.4306C7.82399 30.4094 6.56049 25.9893 6.49421 25.7552C6.01984 25.8745 6.44253 25.7684 4.15124 26.3433C2.26939 26.815 0.950195 28.5064 0.950195 30.4461V35.9922C0.950195 36.576 1.42401 37.0499 2.00781 37.0499H13.4301V33.2749C13.1255 32.8441 12.725 32.4711 12.2357 32.1658ZM24.8255 26.344C24.8255 26.344 22.4811 25.7521 22.4811 25.7573L21.145 30.4306C21.0819 30.6516 20.9486 30.846 20.7651 30.9844C20.5817 31.1229 20.3581 31.1977 20.1283 31.1977C20.1128 31.1977 18.2528 31.2196 16.7404 32.1651C16.2504 32.4711 15.8499 32.8441 15.5453 33.2749V37.0499H26.9675C27.5513 37.0499 28.0251 36.576 28.0251 35.9922V30.4468C28.0251 28.5079 26.7067 26.8164 24.8255 26.344Z" fill="#646464"/>
<path id="Vector_2" d="M20.446 25.1777C18.6714 24.6836 17.5592 24.374 17.508 24.3598L17.3 22.7719C15.4988 23.4782 13.4732 23.4763 11.6749 22.7727L11.4669 24.3598C9.87917 24.8017 9.05818 25.0313 8.52881 25.1777C8.53085 25.1848 9.64939 29.0977 9.66116 29.1395C11.4168 29.3454 13.2169 30.0018 14.4874 31.2618C15.7481 30.0117 17.5383 29.3482 19.3137 29.1395C19.3249 29.0994 20.4378 25.2064 20.446 25.1777ZM20.1231 8.84668C19.7748 8.84315 16.6555 8.73668 14.4874 6.02637C12.2826 8.78181 8.99557 8.84527 8.85737 8.84668C8.84095 8.84668 8.8468 8.5191 8.8468 15.5449C8.8468 18.7236 11.4902 21.2768 14.6327 21.1834C17.6758 21.1066 20.128 18.6064 20.128 15.5449C20.128 8.52735 20.1306 8.84668 20.1231 8.84668Z" fill="#646464"/>
</g>
</g>
</g>
<defs>
<clipPath id="clip0_0_1">
<rect width="1920" height="1080" fill="white" transform="translate(-27 -334)"/>
</clipPath>
<clipPath id="clip1_0_1">
<rect width="38" height="38" fill="white"/>
</clipPath>
</defs>
</svg>
