<svg xmlns="http://www.w3.org/2000/svg" width="18" height="18" viewBox="0 0 18 18" fill="none">
  <g clip-path="url(#clip0_86_225)">
    <path d="M0.135296 3.47883L0.135294 3.47883C-0.0153238 3.3282 -0.099938 3.12392 -0.0999343 2.91091C-0.0999305 2.69789 -0.015309 2.49361 0.135315 2.34299C0.285938 2.19237 0.490225 2.10776 0.703235 2.10776C0.916245 2.10777 1.12053 2.19239 1.27115 2.34301L7.3602 8.43207C7.36021 8.43207 7.36021 8.43207 7.36021 8.43207C7.43479 8.50665 7.49396 8.59519 7.53433 8.69263C7.57469 8.79008 7.59547 8.89452 7.59547 9C7.59547 9.10548 7.57469 9.20992 7.53433 9.30736C7.49396 9.40481 7.43479 9.49335 7.36021 9.56792C7.36021 9.56793 7.36021 9.56793 7.3602 9.56793L1.27122 15.6569L0.135296 3.47883ZM0.135296 3.47883L5.65643 8.99993L0.135305 14.521C0.135302 14.521 0.135299 14.521 0.135296 14.521C0.0229539 14.6333 -0.0535561 14.7765 -0.0845577 14.9323C-0.11556 15.0881 -0.0996587 15.2496 -0.0388648 15.3963C0.0219291 15.5431 0.124884 15.6685 0.256979 15.7568C0.389074 15.845 0.544373 15.8921 0.703235 15.8921M0.135296 3.47883L0.703235 15.8921M0.703235 15.8921C0.808706 15.8922 0.913165 15.8715 1.01061 15.8312C1.10808 15.7908 1.19662 15.7316 1.27115 15.657L0.703082 15.8921C0.703133 15.8921 0.703184 15.8921 0.703235 15.8921ZM16.7291 14.7991C16.8797 14.9497 17.084 15.0343 17.297 15.0343C17.51 15.0343 17.7142 14.9497 17.8649 14.7991C18.0155 14.6485 18.1001 14.4442 18.1001 14.2312V3.76868C18.1001 3.55568 18.0155 3.3514 17.8649 3.20078C17.7142 3.05017 17.51 2.96555 17.297 2.96555C17.084 2.96555 16.8797 3.05017 16.7291 3.20078C16.5785 3.3514 16.4938 3.55568 16.4938 3.76868V14.2312C16.4938 14.4442 16.5785 14.6485 16.7291 14.7991Z" fill="black" stroke="black" stroke-width="0.2"/>
    <path d="M11.7452 8.99992L6.2241 3.47881C6.07348 3.3282 5.98887 3.12391 5.98887 2.91091C5.98887 2.80544 6.00964 2.701 6.05 2.60356C6.09036 2.50612 6.14952 2.41758 6.2241 2.343C6.29868 2.26842 6.38722 2.20926 6.48466 2.1689C6.5821 2.12854 6.68654 2.10776 6.79201 2.10776C7.00502 2.10776 7.2093 2.19238 7.35992 2.343L13.449 8.43206C13.449 8.43206 13.449 8.43206 13.449 8.43206C13.5236 8.50664 13.5827 8.59518 13.6231 8.69262C13.6635 8.79007 13.6842 8.89451 13.6842 8.99999C13.6842 9.10546 13.6635 9.20991 13.6231 9.30735C13.5827 9.4048 13.5236 9.49334 13.449 9.56791C13.449 9.56791 13.449 9.56792 13.449 9.56792L7.35999 15.6569L11.7452 8.99992ZM11.7452 8.99992L6.22417 14.5211C6.11186 14.6334 6.03537 14.7765 6.00438 14.9323C5.97339 15.0881 5.9893 15.2496 6.05008 15.3963C6.11087 15.5431 6.2138 15.6685 6.34587 15.7568C6.47791 15.845 6.63313 15.8921 6.79193 15.8921C6.79197 15.8921 6.79202 15.8921 6.79206 15.8921L6.79206 15.7921L11.7452 8.99992Z" fill="black" stroke="black" stroke-width="0.2"/>
  </g>
  <defs>
    <clipPath id="clip0_86_225">
      <rect width="18" height="18" fill="white"/>
    </clipPath>
  </defs>
</svg>