<svg width="25" height="25" viewBox="0 0 38 38" fill="none" xmlns="http://www.w3.org/2000/svg">
<rect width="25" height="25" fill="#D4D4D4"/>
<g id="Frame 1" clip-path="url(#clip0_0_1)">
<rect width="1920" height="1080" transform="translate(-27 -993)" fill="white"/>
<rect id="Rectangle 311" x="-27" y="-993" width="1920" height="1080" fill="#181818"/>
<g id="Frame">
<g id="Group">
<path id="Vector" d="M34.3074 16.8191L30.8867 13.3984C30.6072 13.1266 30.232 12.9758 29.8422 12.9786C29.4523 12.9813 29.0793 13.1374 28.8037 13.4131C28.528 13.6888 28.372 14.0619 28.3694 14.4517C28.3668 14.8416 28.5177 15.2167 28.7896 15.4961L30.6293 17.3358H23.5192C23.3208 17.33 23.1233 17.3641 22.9384 17.436C22.7535 17.5079 22.5848 17.6162 22.4425 17.7544C22.3002 17.8927 22.187 18.0581 22.1098 18.2408C22.0325 18.4236 21.9927 18.62 21.9927 18.8184C21.9927 19.0168 22.0325 19.2132 22.1098 19.396C22.187 19.5787 22.3002 19.7441 22.4425 19.8824C22.5848 20.0206 22.7535 20.1289 22.9384 20.2008C23.1233 20.2727 23.3208 20.3068 23.5192 20.301H30.6955L28.8558 22.1413C28.7182 22.279 28.6089 22.4425 28.5344 22.6224C28.4599 22.8023 28.4215 22.9951 28.4215 23.1898C28.4215 23.3846 28.4599 23.5774 28.5344 23.7573C28.6089 23.9372 28.7182 24.1007 28.8558 24.2384C29.1339 24.5165 29.5111 24.6727 29.9044 24.6727C30.0991 24.6727 30.2919 24.6343 30.4719 24.5598C30.6518 24.4853 30.8152 24.3761 30.9529 24.2384L34.3074 20.8839C34.5744 20.617 34.7862 20.3 34.9307 19.9512C35.0752 19.6023 35.1496 19.2285 35.1496 18.8509C35.1496 18.4733 35.0752 18.0994 34.9307 17.7506C34.7862 17.4018 34.5744 17.0848 34.3074 16.8178V16.8191Z" fill="#646464"/>
<path id="Vector_2" d="M26.1158 22.2014C25.7385 22.2078 25.3769 22.3536 25.1006 22.6107C24.8243 22.8677 24.6529 23.2179 24.6193 23.5937C24.5644 24.3161 24.5096 24.559 24.4414 25.0972C24.3425 25.8176 24.0101 26.4858 23.4951 26.9993C22.9808 27.5212 22.3108 27.8617 21.586 27.9696L21.5431 27.9753C21.1015 28.0384 20.6914 28.0939 20.2643 28.1444C20.3476 26.4864 20.4006 24.5697 20.4138 22.6676C20.4378 19.522 20.3507 16.2767 20.1785 14.1821C20.0495 12.7175 19.6147 11.2962 18.9022 10.0101C18.1975 8.74324 17.2815 7.74769 16.3212 7.2209L16.2916 7.20513C15.4544 6.7471 14.7453 6.35911 13.5213 5.84304C14.0425 5.826 14.5497 5.81528 15.2248 5.81528C18.5514 5.82853 19.7287 6.02852 21.3646 6.2752L21.4049 6.28151C22.1256 6.40441 22.7876 6.75588 23.2932 7.28399C23.8068 7.80751 24.1419 8.47982 24.2509 9.20505C24.4256 10.4725 24.5663 11.9179 24.6509 14.0042C24.6818 14.7903 25.3449 15.4319 26.1511 15.4509C26.9801 15.4698 27.6369 14.8395 27.599 14.0496C27.5019 11.998 27.341 10.4788 27.1309 9.10726C26.9246 7.76536 26.2401 6.45122 25.2319 5.40142C24.2238 4.35161 22.9412 3.62294 21.6049 3.38888L21.5639 3.38194C19.9324 3.11066 18.6492 2.86776 15.2298 2.8501C11.811 2.87029 10.6085 3.10939 8.97453 3.37941L8.93352 3.38698C7.59729 3.62041 6.31154 4.35098 5.30212 5.39889C4.29269 6.4468 3.60944 7.76284 3.40314 9.10474C3.09716 11.0801 2.87572 14.1727 2.85237 17.194C2.82903 20.2153 2.98675 23.3042 3.26119 25.2732C3.38343 26.112 3.67515 26.9172 4.11857 27.6396C4.24159 27.892 4.37408 28.1444 4.51603 28.3854C5.25228 29.6415 6.19798 30.6603 7.17207 31.2319L7.20173 31.2496C8.38906 31.9436 9.33035 32.5044 11.7839 33.5523C14.2305 34.587 15.1276 34.7952 16.2714 35.0665L16.2998 35.0734C17.2348 35.2911 18.1174 34.9908 18.8013 34.2432C19.4637 33.5189 19.911 32.4085 20.0567 31.1146C20.6567 31.0433 21.1923 30.9625 21.7721 30.8723L21.8138 30.8654C23.1759 30.6528 24.4805 29.9493 25.4925 28.9254C26.5044 27.9015 27.1757 26.6044 27.3605 25.2662C27.44 24.6871 27.5019 24.4025 27.5637 23.6587C27.6312 22.8493 26.9662 22.1843 26.1158 22.2014Z" fill="#646464"/>
</g>
</g>
</g>
<defs>
<clipPath id="clip0_0_1">
<rect width="1920" height="1080" fill="white" transform="translate(-27 -993)"/>
</clipPath>
</defs>
</svg>
