<svg xmlns="http://www.w3.org/2000/svg" width="24" height="27" viewBox="0 0 24 27" fill="none">
  <path d="M1 13.0908C1 15.6436 1.0665 17.4628 1.28113 18.8162C1.49358 20.1558 1.83711 20.9396 2.31996 21.4951C2.81162 22.0607 3.54214 22.5002 4.75903 22.965C5.66398 23.3107 6.75137 23.6408 8.10867 24.0528C8.59827 24.2014 9.12299 24.3607 9.68693 24.5352C11.7072 25.1604 13.1538 25.2956 14.1923 25.0967C15.1715 24.9091 15.8493 24.4144 16.3628 23.5693C16.9059 22.6756 17.2748 21.3684 17.4967 19.5765C17.7171 17.7974 17.7826 15.6353 17.7826 13.0908C17.7826 10.5464 17.7171 8.38429 17.4967 6.60521C17.2748 4.81325 16.9059 3.50614 16.3628 2.61242C15.8493 1.76736 15.1715 1.27259 14.1923 1.085C13.1538 0.886061 11.7072 1.0213 9.68692 1.64646C9.12307 1.82094 8.59843 1.98019 8.1089 2.12878C6.75149 2.54081 5.66403 2.8709 4.75903 3.21661C3.54214 3.68147 2.81162 4.1209 2.31996 4.68654C1.83711 5.24206 1.49358 6.02587 1.28114 7.36546C1.0665 8.71887 1 10.538 1 13.0908Z" stroke="#404040" stroke-width="2" stroke-linecap="round" stroke-linejoin="round"/>
  <ellipse cx="1.04348" cy="1.04727" rx="1.04348" ry="1.04727" transform="matrix(-1 0 0 1 14.6086 12.2205)" fill="#404040"/>
  <path d="M17.739 22.5163C22.9564 22.5163 22.9564 21.2429 22.9564 13.2604C22.9564 5.27777 22.9564 3.66541 17.739 3.66541" stroke="#404040" stroke-width="2" stroke-linecap="round" stroke-linejoin="round"/>
</svg>