<svg xmlns="http://www.w3.org/2000/svg" width="24" height="24" viewBox="0 0 24 24" fill="none">
  <path d="M18.8581 6.05195C13.341 6.05195 7.84252 6.05195 2.31127 6.05195C2.31127 6.15508 2.31127 6.24883 2.31127 6.33789C2.31127 7.13945 2.31595 7.9457 2.30658 8.74726C2.30189 9.03789 2.12377 9.26758 1.87064 9.35195C1.61283 9.43633 1.30814 9.36133 1.15814 9.13633C1.07845 9.01445 1.01283 8.85039 1.01283 8.70508C1.00345 7.06914 0.989389 5.42852 1.01283 3.79258C1.03626 2.25508 2.3347 1.00352 3.87689 1.00352C8.35345 0.998828 12.83 0.998828 17.3066 1.00352C18.8956 1.00352 20.1753 2.28789 20.18 3.87226C20.18 4.39258 20.18 4.91289 20.18 5.44726C20.4003 5.47539 20.6019 5.48477 20.7988 5.52227C22.2003 5.78945 23.1659 6.96133 23.1659 8.39102C23.1659 11.3488 23.1659 14.302 23.1659 17.2598C23.1659 18.9051 21.891 20.1754 20.241 20.1754C18.4644 20.1754 16.6831 20.1754 14.9066 20.1754C14.6066 20.1754 14.391 20.0488 14.2785 19.777C14.1753 19.5285 14.1941 19.2566 14.4097 19.0879C14.5597 18.966 14.7847 18.8816 14.9769 18.8816C16.7066 18.8676 18.441 18.8723 20.1706 18.8723C21.1878 18.8723 21.8581 18.2066 21.8628 17.1941C21.8628 15.1645 21.8581 13.1395 21.8675 11.1098C21.8675 10.8707 21.8019 10.8004 21.5675 10.8145C21.1925 10.8332 20.8175 10.8285 20.4472 10.8145C20.2456 10.8051 20.1753 10.8566 20.18 11.0723C20.1941 11.6348 20.1847 12.1973 20.1847 12.7551C20.1847 14.4191 18.966 15.6754 17.3019 15.7129C16.6316 15.727 15.9613 15.7176 15.2909 15.7082C14.8878 15.7035 14.616 15.4316 14.616 15.0566C14.616 14.6863 14.8691 14.4145 15.2675 14.4051C15.8347 14.3957 16.4066 14.391 16.9738 14.4098C17.6816 14.4332 18.2956 14.2598 18.6659 13.6035C18.7831 13.3926 18.8722 13.1348 18.8769 12.9004C18.8909 10.6457 18.8863 8.39102 18.8863 6.14102C18.8722 6.12695 18.8675 6.10351 18.8581 6.05195ZM18.8722 4.73477C18.8722 4.47695 18.8722 4.26133 18.8722 4.04101C18.8722 2.9582 18.2253 2.30664 17.1425 2.30664C13.8425 2.30664 10.5472 2.30664 7.2472 2.30664C6.14095 2.30664 5.0347 2.30195 3.92376 2.30664C3.06595 2.31133 2.42376 2.8832 2.32533 3.73633C2.2972 3.96133 2.31127 4.18633 2.31127 4.41601C2.31127 4.73476 2.31126 4.73477 2.63001 4.73477C7.94095 4.73477 13.2519 4.73477 18.5628 4.73477C18.6519 4.73477 18.7456 4.73477 18.8722 4.73477ZM21.816 9.51133C21.816 8.9957 21.8722 8.50352 21.8019 8.02539C21.6941 7.2707 20.8925 6.69883 20.1941 6.81602C20.1941 7.71133 20.1941 8.60664 20.1941 9.51133C20.7472 9.51133 21.2816 9.51133 21.816 9.51133Z" fill="#404040"/>
  <path d="M7.49102 8.44642C8.48008 8.44642 9.46914 8.44642 10.4629 8.44642C11.2176 8.44642 11.7004 8.79798 11.9254 9.51048C12.0941 10.0449 12.4316 10.4058 12.9613 10.598C13.6316 10.837 13.9832 11.348 13.941 12.0464C13.8426 13.8652 13.7816 15.6933 13.6176 17.5074C13.3926 19.9683 12.1035 21.7449 9.82539 22.6917C6.20195 24.1964 2.26914 22.0214 1.48164 18.1542C1.29883 17.2683 1.30352 16.3449 1.23789 15.4355C1.16758 14.4089 1.11601 13.3824 1.06445 12.3558C1.05039 12.1308 1.03164 11.9011 1.06914 11.6808C1.15352 11.1699 1.4582 10.8136 1.94102 10.6402C2.54102 10.4292 2.91133 10.0355 3.09883 9.42611C3.28633 8.80736 3.80195 8.45111 4.4582 8.44642C5.46601 8.44173 6.47852 8.44642 7.49102 8.44642ZM7.50976 9.75423C6.53476 9.75423 5.55977 9.75892 4.58477 9.74954C4.42071 9.74954 4.34102 9.79642 4.28945 9.96517C4.01289 10.823 3.45977 11.4417 2.61602 11.7699C2.39102 11.8589 2.33476 11.962 2.34883 12.1964C2.41914 13.2136 2.46602 14.2355 2.53164 15.2574C2.5832 16.087 2.59258 16.9308 2.72383 17.7511C3.07539 19.9589 4.91289 21.6933 7.13476 21.8527C9.38476 22.012 11.4988 20.5683 12.141 18.4027C12.3754 17.6058 12.3566 16.7855 12.4082 15.9699C12.4879 14.6949 12.5488 13.4152 12.6285 12.1402C12.6379 11.9527 12.6004 11.8683 12.4176 11.798C11.5551 11.4699 10.9785 10.8558 10.6973 9.98392C10.641 9.80579 10.5566 9.75892 10.3832 9.75892C9.43164 9.75423 8.4707 9.75423 7.50976 9.75423Z" fill="#404040"/>
  <path d="M15.6707 10.1203C15.2441 10.1203 14.8129 10.125 14.3863 10.1203C13.9879 10.1156 13.702 9.85312 13.702 9.48281C13.6973 9.10312 13.9832 8.82188 14.3957 8.82188C15.2348 8.81719 16.0738 8.81719 16.9176 8.82188C17.3301 8.82188 17.6113 9.09844 17.6113 9.47812C17.6113 9.86719 17.3395 10.1203 16.9129 10.1203C16.4957 10.1203 16.0832 10.1203 15.6707 10.1203Z" fill="#404040"/>
  <path d="M18.6895 16.6592C19.0551 16.6639 19.3363 16.9499 19.3363 17.3155C19.3363 17.6717 19.0363 17.9671 18.6801 17.9624C18.3238 17.9577 18.0332 17.6624 18.0379 17.3014C18.0332 16.9358 18.3191 16.6545 18.6895 16.6592Z" fill="#404040"/>
  <path d="M17.466 17.3014C17.466 17.6671 17.1848 17.9577 16.8238 17.9624C16.4723 17.9671 16.1676 17.6717 16.1629 17.3155C16.1582 16.9592 16.4488 16.6639 16.8098 16.6592C17.1754 16.6545 17.4613 16.9358 17.466 17.3014Z" fill="#404040"/>
  <path d="M16.8238 10.8701C17.1941 10.8701 17.4707 11.1514 17.466 11.5217C17.466 11.8826 17.1753 12.1732 16.8144 12.1732C16.4628 12.1732 16.1628 11.8686 16.1628 11.517C16.1675 11.1561 16.4582 10.8701 16.8238 10.8701Z" fill="#404040"/>
  <path d="M18.8722 4.73392C18.7456 4.73392 18.6519 4.73392 18.5581 4.73392C13.2472 4.73392 7.93623 4.73392 2.62529 4.73392C2.30654 4.73392 2.30654 4.73392 2.30654 4.41517C2.30654 4.19017 2.29717 3.96048 2.3206 3.73548C2.41904 2.88236 3.06123 2.31048 3.91904 2.30579C5.02529 2.30111 6.13154 2.30579 7.24248 2.30579C10.5425 2.30579 13.8378 2.30579 17.1378 2.30579C18.2206 2.30579 18.8675 2.95736 18.8675 4.04017C18.8722 4.26048 18.8722 4.4808 18.8722 4.73392Z" fill="white"/>
  <path d="M21.816 9.51137C21.2816 9.51137 20.7472 9.51137 20.1941 9.51137C20.1941 8.60668 20.1941 7.71137 20.1941 6.81606C20.8925 6.69887 21.6988 7.27074 21.8019 8.02543C21.8722 8.49887 21.816 8.99574 21.816 9.51137Z" fill="white"/>
  <path d="M7.50971 9.75527C8.47064 9.75527 9.4269 9.75996 10.3878 9.75059C10.5613 9.75059 10.641 9.79746 10.7019 9.97559C10.9878 10.8475 11.5644 11.4662 12.4222 11.7896C12.605 11.86 12.6425 11.949 12.6331 12.1318C12.5535 13.4068 12.4925 14.6865 12.4128 15.9615C12.3613 16.7771 12.38 17.5975 12.1456 18.3943C11.5081 20.56 9.3894 22.0037 7.1394 21.8443C4.91284 21.685 3.08002 19.9506 2.72846 17.7428C2.59721 16.9225 2.58783 16.0834 2.53627 15.249C2.47064 14.2318 2.42846 13.21 2.35346 12.1881C2.33939 11.9537 2.39096 11.8506 2.62065 11.7615C3.4644 11.4334 4.01752 10.8146 4.29408 9.95683C4.35033 9.78808 4.42533 9.74121 4.5894 9.74121C5.55971 9.75527 6.53471 9.75527 7.50971 9.75527ZM6.06127 17.0068C5.50815 17.0068 5.18939 17.5131 5.44721 18.024C5.70971 18.5396 6.13158 18.8865 6.66596 19.0928C6.79252 19.1443 6.86283 19.2006 6.84408 19.3412C6.83471 19.4115 6.8394 19.4818 6.84408 19.5521C6.85815 19.8709 7.09252 20.1287 7.40658 20.1709C7.71127 20.2131 8.00659 20.035 8.10034 19.735C8.13784 19.6178 8.14721 19.4912 8.14252 19.3693C8.13783 19.2193 8.18002 19.1443 8.33002 19.0787C9.71752 18.4881 10.0785 16.7396 9.04721 15.6334C8.60658 15.16 8.04877 14.9725 7.41127 14.949C7.01283 14.935 6.70815 14.6162 6.65658 14.2131C6.60971 13.8381 6.86283 13.4537 7.24252 13.3318C7.61283 13.21 8.01127 13.3693 8.20815 13.7068C8.25502 13.7865 8.29252 13.8756 8.34408 13.9506C8.55033 14.2412 8.96752 14.3162 9.28627 14.124C9.57221 13.9506 9.65659 13.6178 9.50659 13.285C9.2769 12.7834 8.91127 12.4037 8.40502 12.1928C8.20346 12.1084 8.12846 12.0053 8.13783 11.785C8.1519 11.3678 7.87533 11.0912 7.48158 11.0959C7.10189 11.1006 6.83471 11.3725 6.84408 11.7756C6.84877 11.9912 6.78783 12.099 6.58627 12.1928C5.77533 12.5584 5.30189 13.3693 5.34877 14.2693C5.39096 15.1037 5.92064 15.8068 6.75971 16.0975C7.04564 16.1959 7.35033 16.2287 7.64565 16.2896C8.17533 16.4021 8.46596 16.9881 8.21752 17.4709C8.06752 17.7662 7.81909 17.935 7.49096 17.935C7.15346 17.935 6.89096 17.7756 6.74096 17.4662C6.60971 17.185 6.42221 16.9928 6.06127 17.0068Z" fill="white"/>
  <path d="M6.06134 17.0067C6.41759 16.9926 6.60978 17.1848 6.74572 17.4661C6.89572 17.7754 7.15822 17.9348 7.49572 17.9348C7.82853 17.9348 8.07228 17.7614 8.22228 17.4708C8.47072 16.9879 8.18009 16.3973 7.6504 16.2895C7.35509 16.2286 7.04572 16.1958 6.76447 16.0973C5.92541 15.8114 5.39571 15.1036 5.35353 14.2692C5.30665 13.3692 5.78009 12.5583 6.59103 12.1926C6.79728 12.0989 6.85821 11.9911 6.84884 11.7754C6.83478 11.3676 7.10665 11.0958 7.48634 11.0958C7.8754 11.0911 8.15665 11.3676 8.14259 11.7848C8.13321 12.0051 8.20822 12.1083 8.40978 12.1926C8.91603 12.4083 9.28165 12.7833 9.51134 13.2848C9.66134 13.6176 9.57696 13.9504 9.29103 14.1239C8.97228 14.3161 8.55509 14.2411 8.34884 13.9504C8.29728 13.8754 8.25978 13.7864 8.2129 13.7067C8.01603 13.3692 7.6129 13.2145 7.24728 13.3317C6.86759 13.4536 6.61446 13.8379 6.66134 14.2129C6.7129 14.6161 7.02228 14.9348 7.41603 14.9489C8.04884 14.9723 8.61134 15.1645 9.05196 15.6333C10.0832 16.7348 9.71759 18.4879 8.33478 19.0786C8.18009 19.1442 8.13791 19.2145 8.14728 19.3692C8.15197 19.4911 8.14259 19.6223 8.10509 19.7348C8.01134 20.0348 7.72071 20.2083 7.41134 20.1708C7.09728 20.1286 6.8629 19.8708 6.84884 19.552C6.84415 19.4817 6.83946 19.4114 6.84884 19.3411C6.86759 19.2004 6.80197 19.1395 6.67072 19.0926C6.13634 18.8864 5.71447 18.5442 5.45197 18.0239C5.18947 17.5129 5.50822 17.0067 6.06134 17.0067Z" fill="#404040"/>
</svg>