<svg width="25" height="25" viewBox="0 0 38 38" fill="none" xmlns="http://www.w3.org/2000/svg">
<rect width="25" height="25" fill="#D4D4D4"/>
<g id="Frame 1" clip-path="url(#clip0_0_1)">
<rect width="1920" height="1080" transform="translate(-27 -482)" fill="white"/>
<rect id="Rectangle 311" x="-27" y="-482" width="1920" height="1080" fill="#181818"/>
<g id="Frame" clip-path="url(#clip1_0_1)">
<g id="Group">
<path id="Vector" d="M13.2489 8.189H23.9825C24.5974 8.189 25.0957 7.69032 25.0957 7.07572C25.0957 6.97923 25.0836 6.88579 25.0606 6.7968L23.8801 0.894929C23.8296 0.642589 23.6933 0.415526 23.4943 0.252367C23.2953 0.0892074 23.0459 2.84541e-05 22.7886 0L14.4413 0C14.1839 3.18864e-05 13.9345 0.0892214 13.7355 0.252395C13.5365 0.415569 13.4002 0.642649 13.3497 0.895004L12.1573 6.85744C12.1251 7.01893 12.129 7.18556 12.1689 7.34534C12.2088 7.50511 12.2837 7.65404 12.3881 7.78139C12.4925 7.9088 12.6238 8.01145 12.7727 8.08194C12.9215 8.15243 13.0842 8.18899 13.2489 8.189Z" fill="#646464"/>
<path id="Vector_2" d="M28.7508 4.77002H26.9257L27.2352 6.31696C27.2932 6.5658 27.3225 6.82048 27.3224 7.076C27.3224 8.91751 25.8241 10.4158 23.9811 10.4158H13.249C12.2444 10.4158 11.303 9.97023 10.6664 9.19353C10.0295 8.41654 9.77691 7.4059 9.9741 6.42109L10.3043 4.77032H8.47926C6.22168 4.77032 4.38477 6.60693 4.38477 8.86452V33.9061C4.38477 36.1637 6.22168 38.0003 8.47926 38.0003H28.7509C31.0084 38.0003 32.8454 36.1637 32.8454 33.9061V8.86452C32.8454 6.60693 31.0084 4.77002 28.7509 4.77002H28.7508ZM11.4606 13.0378H19.8074C20.4223 13.0378 20.9207 13.5365 20.9207 14.1511C20.9207 14.766 20.4223 15.2644 19.8074 15.2644H11.4605C10.8456 15.2644 10.3472 14.766 10.3472 14.1511C10.3472 13.5365 10.8457 13.0378 11.4606 13.0378ZM12.5735 20.1133C12.5735 20.4064 12.4546 20.6937 12.2477 20.9007C12.0383 21.1087 11.7554 21.2258 11.4603 21.2265C11.1653 21.2256 10.8826 21.1086 10.6734 20.9007C10.4654 20.6913 10.3484 20.4084 10.3476 20.1133C10.3476 19.8201 10.4664 19.5337 10.6734 19.3265C10.8824 19.1182 11.1652 19.0009 11.4603 19C11.7534 19 12.0407 19.1189 12.2477 19.3265C12.4556 19.5357 12.5727 19.8184 12.5735 20.1133ZM12.2477 32.8255C12.0385 33.0333 11.7558 33.1503 11.4609 33.1511C11.1658 33.1504 10.8828 33.0334 10.6734 32.8255C10.4664 32.6177 10.347 32.3312 10.347 32.0378C10.347 31.7451 10.4665 31.4583 10.6734 31.2508C10.8827 31.0426 11.1657 30.9253 11.4609 30.9246C11.7534 30.9246 12.0407 31.0435 12.2476 31.2508C12.4555 31.4601 12.5725 31.7429 12.5735 32.0378C12.5735 32.3312 12.4546 32.6177 12.2477 32.8255ZM12.2477 26.8628C12.0385 27.0712 11.7555 27.1885 11.4603 27.1893C11.1652 27.1884 10.8824 27.0711 10.6734 26.8628C10.465 26.6539 10.3477 26.3711 10.347 26.076C10.347 25.7828 10.4656 25.4956 10.6734 25.2885C10.8826 25.0807 11.1653 24.9636 11.4603 24.9627C11.7534 24.9627 12.0407 25.0815 12.2477 25.2885C12.4559 25.4979 12.5731 25.7808 12.5741 26.076C12.5741 26.3685 12.4547 26.6558 12.2477 26.8628ZM25.7696 33.1511H17.4227C16.8078 33.1511 16.3094 32.6527 16.3094 32.0378C16.3094 31.4232 16.8078 30.9246 17.4227 30.9246H25.7697C26.3846 30.9246 26.883 31.4232 26.883 32.0378C26.883 32.6527 26.3846 33.1511 25.7697 33.1511H25.7696ZM25.7696 27.189H17.4227C16.8078 27.189 16.3094 26.6906 16.3094 26.0757C16.3094 25.4611 16.8078 24.9624 17.4227 24.9624H25.7697C26.3846 24.9624 26.883 25.4611 26.883 26.0757C26.883 26.6906 26.3846 27.189 25.7697 27.189H25.7696ZM25.7696 21.2268H17.4227C16.8078 21.2268 16.3094 20.7285 16.3094 20.1136C16.3094 19.4987 16.8078 19.0003 17.4227 19.0003H25.7697C26.3846 19.0003 26.883 19.4987 26.883 20.1136C26.883 20.7285 26.3846 21.2268 25.7697 21.2268H25.7696Z" fill="#646464"/>
</g>
</g>
</g>
<defs>
<clipPath id="clip0_0_1">
<rect width="1920" height="1080" fill="white" transform="translate(-27 -482)"/>
</clipPath>
<clipPath id="clip1_0_1">
<rect width="38" height="38" fill="white"/>
</clipPath>
</defs>
</svg>
