<svg width="25" height="25" viewBox="0 0 38 38" fill="none" xmlns="http://www.w3.org/2000/svg">
<rect width="25" height="25" fill="#D4D4D4"/>
<g id="Frame 1" clip-path="url(#clip0_0_1)">
<rect width="1920" height="1080" transform="translate(-27 -847)" fill="white"/>
<rect id="Rectangle 311" x="-27" y="-847" width="1920" height="1080" fill="#181818"/>
<g id="Frame">
<g id="Group">
<g id="Group_2">
<path id="Vector" d="M19 19.0302C23.4707 19.0302 27.0946 15.4244 27.0946 10.9768C27.0946 6.52914 23.4723 2.92334 19 2.92334C14.5277 2.92334 10.9055 6.52914 10.9055 10.9768C10.9055 15.4244 14.5277 19.0302 19 19.0302ZM23.2158 22.3861H14.7842C9.89429 22.3861 5.84619 26.4128 5.84619 31.2781C5.84619 32.4521 6.35261 33.46 7.36382 33.9631C8.88144 34.8017 12.2538 35.808 19 35.808C25.7463 35.808 29.1186 34.8017 30.6363 33.9631C31.0967 33.6816 31.4777 33.2872 31.7432 32.8174C32.0088 32.3476 32.1501 31.8178 32.1539 31.2781C32.1539 26.2451 28.1074 22.3861 23.2158 22.3861Z" fill="#646464"/>
</g>
</g>
</g>
</g>
<defs>
<clipPath id="clip0_0_1">
<rect width="1920" height="1080" fill="white" transform="translate(-27 -847)"/>
</clipPath>
</defs>
</svg>
