<svg xmlns="http://www.w3.org/2000/svg" width="26" height="27" viewBox="0 0 26 27" fill="none">
  <path d="M16.6852 4.06345C15.9239 -0.0211492 10.0761 -0.0211499 9.31477 4.06345C9.11771 5.12072 8.02528 5.75075 7.01415 5.39371C3.09358 4.00933 0.178808 9.08166 3.32835 11.7805C4.14409 12.4795 4.14409 13.7427 3.32835 14.4417C0.178809 17.1406 3.09358 22.2129 7.01415 20.8285C8.02528 20.4715 9.11771 21.1015 9.31477 22.1588C10.0761 26.2434 15.9239 26.2434 16.6852 22.1588C16.8823 21.1015 17.9747 20.4715 18.9859 20.8285C22.9064 22.2129 25.8212 17.1406 22.6717 14.4417C21.8559 13.7427 21.8559 12.4795 22.6717 11.7805C25.8212 9.08166 22.9064 4.00933 18.9859 5.39371C17.9747 5.75075 16.8823 5.12072 16.6852 4.06345Z" stroke="#404040" stroke-width="2" stroke-linejoin="round"/>
  <circle cx="4.44444" cy="4.44444" r="3.44444" transform="matrix(-1 0 0 1 17.4443 8.66675)" stroke="#404040" stroke-width="2"/>
</svg>