<svg xmlns="http://www.w3.org/2000/svg" width="30" height="30" viewBox="0 0 30 30" fill="none">
  <path d="M15 29C18.0653 29 20.4603 28.8344 22.338 28.4171C24.2044 28.0023 25.4979 27.3523 26.4251 26.4251C27.3523 25.4979 28.0023 24.2044 28.4171 22.338C28.8344 20.4603 29 18.0653 29 15C29 11.9347 28.8344 9.53972 28.4171 7.66199C28.0023 5.79561 27.3523 4.50209 26.4251 3.57492C25.4979 2.64775 24.2044 1.99765 22.338 1.58286C20.4603 1.16555 18.0653 1 15 1C11.9347 1 9.53972 1.16555 7.66199 1.58286C5.79561 1.99765 4.50209 2.64775 3.57492 3.57492C2.64775 4.50209 1.99765 5.79561 1.58286 7.66199C1.16555 9.53972 1 11.9347 1 15C1 18.0653 1.16555 20.4603 1.58286 22.338C1.99765 24.2044 2.64775 25.4979 3.57492 26.4251C4.50209 27.3523 5.79561 28.0023 7.66199 28.4171C9.53972 28.8344 11.9347 29 15 29Z" stroke="#3144E7" stroke-width="2" stroke-linecap="round" stroke-linejoin="round"/>
  <path fill-rule="evenodd" clip-rule="evenodd" d="M11.75 10C11.75 10.9665 10.9665 11.75 10 11.75C9.0335 11.75 8.25 10.9665 8.25 10C8.25 9.0335 9.0335 8.25 10 8.25C10.9665 8.25 11.75 9.0335 11.75 10ZM13.6176 10.9913C13.1829 12.5813 11.7279 13.75 10 13.75C7.92893 13.75 6.25 12.0711 6.25 10C6.25 7.92893 7.92893 6.25 10 6.25C11.7279 6.25 13.1829 7.41866 13.6176 9.00869C13.6609 9.00296 13.7051 9 13.75 9L22.5 9C23.0523 9 23.5 9.44772 23.5 10C23.5 10.5523 23.0523 11 22.5 11L13.75 11C13.7051 11 13.6609 10.997 13.6176 10.9913ZM7.5 19C6.94771 19 6.5 19.4477 6.5 20C6.5 20.5523 6.94771 21 7.5 21H16.25C16.2949 21 16.3391 20.997 16.3824 20.9913C16.8171 22.5813 18.2721 23.75 20 23.75C22.0711 23.75 23.75 22.0711 23.75 20C23.75 17.9289 22.0711 16.25 20 16.25C18.2721 16.25 16.8171 17.4187 16.3824 19.0087C16.3391 19.003 16.2949 19 16.25 19H7.5ZM20 21.75C20.9665 21.75 21.75 20.9665 21.75 20C21.75 19.0335 20.9665 18.25 20 18.25C19.0335 18.25 18.25 19.0335 18.25 20C18.25 20.9665 19.0335 21.75 20 21.75Z" fill="#3144E7"/>
</svg>