<svg width="25" height="25" viewBox="0 0 38 38" fill="none" xmlns="http://www.w3.org/2000/svg">
<rect width="25" height="25" fill="#D4D4D4"/>
<g id="Frame 1" clip-path="url(#clip0_0_1)">
<rect width="1920" height="1080" transform="translate(-27 -920)" fill="white"/>
<rect id="Rectangle 311" x="-27" y="-920" width="1920" height="1080" fill="#181818"/>
<g id="Frame">
<g id="Group">
<path id="Vector" fill-rule="evenodd" clip-rule="evenodd" d="M33.8339 22.2038C32.7198 21.562 32.0278 20.3662 32.0278 19.0818C32.0278 17.798 32.7197 16.6023 33.8307 15.961C34.9709 15.3055 35.4452 13.9435 34.9579 12.7227C34.3471 11.1807 33.5156 9.74038 32.4923 8.44128C31.677 7.40697 30.2607 7.13609 29.1205 7.79582C28.0096 8.44128 26.6257 8.44322 25.5116 7.80068C24.4006 7.15813 23.7119 5.96044 23.7152 4.67374C23.7152 3.35745 22.7731 2.26505 21.4706 2.07665C19.831 1.83937 18.1656 1.84101 16.5265 2.0815C15.2271 2.27122 14.2851 3.363 14.2883 4.67665C14.2883 5.96175 13.5996 7.15875 12.4887 7.80068C11.3744 8.44253 9.99389 8.44122 8.87973 7.79645C7.73956 7.13671 6.32325 7.40891 5.5079 8.44322C4.99731 9.09233 4.53377 9.7771 4.12084 10.4923C3.70828 11.2067 3.3477 11.9554 3.04237 12.7165C2.55183 13.9392 3.02615 15.3032 4.16631 15.9604C5.28055 16.6016 5.97245 17.798 5.97245 19.0817C5.97245 20.3655 5.28055 21.5609 4.16957 22.2031C3.02941 22.8587 2.55516 24.2201 3.04237 25.4405C3.65207 26.9798 4.48262 28.4222 5.5079 29.7222C6.32325 30.7565 7.73956 31.0274 8.87973 30.3677C9.99071 29.7222 11.3745 29.7209 12.4887 30.3628C13.5996 31.0054 14.2883 32.2031 14.2883 33.4897C14.285 34.8057 15.2303 35.8981 16.5297 36.0869C17.3419 36.2045 18.1615 36.2635 18.9822 36.2636C19.8138 36.2636 20.6454 36.2031 21.4737 36.082C22.7731 35.8919 23.7151 34.8011 23.7151 33.4875C23.7118 32.2017 24.4004 31.0047 25.5114 30.3628C26.6256 29.721 28.0062 29.7223 29.1204 30.367C30.2605 31.0268 31.6768 30.7552 32.4922 29.7203C33.0025 29.0712 33.466 28.3866 33.8793 27.6718C34.2886 26.9575 34.6557 26.2087 34.9577 25.447C35.4484 24.2243 34.9742 22.86 33.8339 22.2038ZM23.4196 21.6341C22.7406 22.8146 21.6394 23.6594 20.3206 24.0122C19.005 24.365 17.6277 24.1841 16.4485 23.5019C14.0122 22.0947 13.1741 18.9674 14.5807 16.5295C15.5227 14.8942 17.2444 13.9789 19.0082 13.9789C19.8756 13.9789 20.7494 14.1984 21.5517 14.6617C23.988 16.0686 24.8261 19.1967 23.4196 21.6341Z" fill="#646464"/>
</g>
</g>
</g>
<defs>
<clipPath id="clip0_0_1">
<rect width="1920" height="1080" fill="white" transform="translate(-27 -920)"/>
</clipPath>
</defs>
</svg>
