<svg xmlns="http://www.w3.org/2000/svg" width="24" height="24" viewBox="0 0 24 24" fill="none">
  <path d="M8.35083 19.3302V13.257" stroke="#404040" stroke-width="2" stroke-linecap="round" stroke-linejoin="round"/>
  <path d="M1.00549 11.917C0.978221 11.4192 1.05274 10.9211 1.22449 10.453C1.39623 9.98481 1.66159 9.55672 2.00437 9.19463C2.34716 8.83256 2.76016 8.54412 3.21815 8.34703C3.67614 8.14994 4.16951 8.04834 4.66811 8.04834C5.16671 8.04834 5.66007 8.14994 6.11805 8.34703C6.57605 8.54412 6.98905 8.83256 7.33183 9.19463C7.67461 9.55672 7.93999 9.98481 8.11174 10.453C8.28348 10.9211 8.35798 11.4192 8.33071 11.917V18.1001C8.35798 18.5979 8.28348 19.0962 8.11174 19.5643C7.93999 20.0323 7.67461 20.4604 7.33183 20.8225C6.98905 21.1846 6.57605 21.473 6.11805 21.6701C5.66007 21.8671 5.16671 21.9688 4.66811 21.9688C4.16951 21.9688 3.67614 21.8671 3.21815 21.6701C2.76016 21.473 2.34716 21.1846 2.00437 20.8225C1.66159 20.4604 1.39623 20.0323 1.22449 19.5643C1.05274 19.0962 0.978221 18.5979 1.00549 18.1001V11.917Z" stroke="#404040" stroke-width="2" stroke-linecap="round" stroke-linejoin="round"/>
  <path d="M8.3509 18.1001C8.34801 18.5832 8.4403 19.0621 8.62252 19.5097C8.80475 19.9571 9.07332 20.3643 9.41292 20.7081C9.7525 21.0517 10.1564 21.3252 10.6018 21.5126C11.047 21.7002 11.5248 21.7983 12.0081 21.8011H16.5328C17.5877 21.8004 18.6142 21.4574 19.4577 20.8237C20.3013 20.19 20.9166 19.2998 21.2113 18.2868L22.8586 12.7078C22.9897 12.3369 23.0304 11.9401 22.9773 11.5503C22.9242 11.1606 22.7788 10.7892 22.5533 10.4669C22.3277 10.1447 22.0284 9.88091 21.6804 9.69762C21.3324 9.51432 20.9456 9.4168 20.5523 9.41306H14.4901V3.61438C14.4915 3.40381 14.4514 3.19506 14.3722 2.99997C14.2929 2.80488 14.1761 2.62731 14.0281 2.4774C13.8803 2.32748 13.7044 2.20814 13.5103 2.12622C13.3164 2.04431 13.1082 2.00144 12.8976 2C12.5511 2.00157 12.2146 2.11609 11.9392 2.32618C11.6637 2.53626 11.4642 2.83044 11.3711 3.16413L8.3509 13.2239" stroke="#404040" stroke-width="2" stroke-linecap="round" stroke-linejoin="round"/>
</svg>