<svg xmlns="http://www.w3.org/2000/svg" width="30" height="30" viewBox="0 0 30 30" fill="none">
  <g clip-path="url(#clip0_70_661)">
    <path d="M20.4154 28.9102H9.5846C8.50098 28.8945 7.46322 28.4704 6.67883 27.7226C5.89443 26.9748 5.42122 25.9585 5.35383 24.8769L4.07049 5.35892C4.06391 5.21741 4.08545 5.076 4.13386 4.94286C4.18228 4.80973 4.2566 4.68751 4.35254 4.58328C4.45138 4.47526 4.57105 4.38834 4.70434 4.32775C4.83764 4.26716 4.98181 4.23415 5.12819 4.23072H24.8718C25.0168 4.23039 25.1604 4.2599 25.2935 4.31741C25.4267 4.37492 25.5466 4.4592 25.6458 4.56501C25.745 4.67082 25.8213 4.7959 25.8701 4.93247C25.9189 5.06905 25.9391 5.21421 25.9295 5.35892L24.7025 24.8769C24.6344 25.9681 24.1533 26.9925 23.3569 27.7417C22.5606 28.4909 21.5088 28.9087 20.4154 28.9102ZM6.3128 6.3461L7.3987 24.7499C7.43458 25.3049 7.68062 25.8253 8.08673 26.2052C8.49284 26.5851 9.02849 26.796 9.5846 26.7948H20.4154C20.9705 26.7926 21.5043 26.5807 21.9097 26.2014C22.3151 25.8222 22.5621 25.3037 22.6013 24.7499L23.7436 6.41661L6.3128 6.3461Z" fill="#FF1010"/>
    <path d="M27.6923 6.3461H2.30769C2.02717 6.3461 1.75815 6.23466 1.55979 6.03631C1.36143 5.83795 1.25 5.56892 1.25 5.28841C1.25 5.00789 1.36143 4.73886 1.55979 4.5405C1.75815 4.34215 2.02717 4.23071 2.30769 4.23071H27.6923C27.9728 4.23071 28.2419 4.34215 28.4402 4.5405C28.6386 4.73886 28.75 5.00789 28.75 5.28841C28.75 5.56892 28.6386 5.83795 28.4402 6.03631C28.2419 6.23466 27.9728 6.3461 27.6923 6.3461Z" fill="#FF1010"/>
    <path d="M19.2307 6.34615H10.7691C10.4897 6.3425 10.2228 6.22989 10.0253 6.03232C9.82769 5.83475 9.71508 5.56784 9.71143 5.28846V2.75C9.7293 2.02628 10.0248 1.33715 10.5367 0.825249C11.0486 0.313348 11.7377 0.0178777 12.4614 0H17.5383C18.2741 0.0183997 18.9735 0.323663 19.4873 0.850631C20.0011 1.3776 20.2886 2.08452 20.2883 2.82051V5.28846C20.2847 5.56784 20.1721 5.83475 19.9745 6.03232C19.7769 6.22989 19.51 6.3425 19.2307 6.34615ZM11.8268 4.23077H18.173V2.82051C18.173 2.6522 18.1061 2.49079 17.9871 2.37177C17.8681 2.25276 17.7067 2.1859 17.5383 2.1859H12.4614C12.2931 2.1859 12.1317 2.25276 12.0127 2.37177C11.8937 2.49079 11.8268 2.6522 11.8268 2.82051V4.23077ZM19.2307 23.2692C18.9513 23.2656 18.6844 23.153 18.4868 22.9554C18.2892 22.7578 18.1766 22.4909 18.173 22.2115V10.9295C18.173 10.649 18.2844 10.3799 18.4828 10.1816C18.6811 9.98323 18.9501 9.8718 19.2307 9.8718C19.5112 9.8718 19.7802 9.98323 19.9786 10.1816C20.1769 10.3799 20.2883 10.649 20.2883 10.9295V22.2115C20.2847 22.4909 20.1721 22.7578 19.9745 22.9554C19.7769 23.153 19.51 23.2656 19.2307 23.2692ZM10.7691 23.2692C10.4897 23.2656 10.2228 23.153 10.0253 22.9554C9.82769 22.7578 9.71508 22.4909 9.71143 22.2115V10.9295C9.71143 10.649 9.82286 10.3799 10.0212 10.1816C10.2196 9.98323 10.4886 9.8718 10.7691 9.8718C11.0496 9.8718 11.3187 9.98323 11.517 10.1816C11.7154 10.3799 11.8268 10.649 11.8268 10.9295V22.2115C11.8232 22.4909 11.7105 22.7578 11.513 22.9554C11.3154 23.153 11.0485 23.2656 10.7691 23.2692ZM14.9999 23.2692C14.7205 23.2656 14.4536 23.153 14.256 22.9554C14.0585 22.7578 13.9458 22.4909 13.9422 22.2115V10.9295C13.9422 10.649 14.0536 10.3799 14.252 10.1816C14.4503 9.98323 14.7194 9.8718 14.9999 9.8718C15.2804 9.8718 15.5494 9.98323 15.7478 10.1816C15.9461 10.3799 16.0576 10.649 16.0576 10.9295V22.2115C16.0539 22.4909 15.9413 22.7578 15.7437 22.9554C15.5462 23.153 15.2793 23.2656 14.9999 23.2692Z" fill="#FF1010"/>
  </g>
  <defs>
    <clipPath id="clip0_70_661">
      <rect width="30" height="30" fill="white"/>
    </clipPath>
  </defs>
</svg>