<svg xmlns="http://www.w3.org/2000/svg" width="62" height="60" viewBox="0 0 62 60" fill="none">
  <mask id="path-1-outside-1_41_1136" maskUnits="userSpaceOnUse" x="44.4717" y="7.67322" width="13" height="22" fill="black">
    <rect fill="white" x="44.4717" y="7.67322" width="13" height="22"/>
    <path fill-rule="evenodd" clip-rule="evenodd" d="M47.5365 28.4506C46.5224 28.4506 45.6377 27.7037 45.4917 26.6703C45.3346 25.5376 46.12 24.4932 47.2527 24.3361C50.1187 23.9337 52.2821 21.448 52.2876 18.5488C52.2876 15.6745 50.2262 13.2439 47.3849 12.7781C46.2606 12.5935 45.4972 11.5297 45.6818 10.4026C45.8692 9.27546 46.9247 8.52037 48.0574 8.6995C52.9021 9.49593 56.4213 13.6407 56.4213 18.5544C56.4103 23.5011 52.7147 27.7451 47.8231 28.4313C47.7267 28.445 47.6302 28.4506 47.5365 28.4506Z"/>
  </mask>
  <path fill-rule="evenodd" clip-rule="evenodd" d="M47.5365 28.4506C46.5224 28.4506 45.6377 27.7037 45.4917 26.6703C45.3346 25.5376 46.12 24.4932 47.2527 24.3361C50.1187 23.9337 52.2821 21.448 52.2876 18.5488C52.2876 15.6745 50.2262 13.2439 47.3849 12.7781C46.2606 12.5935 45.4972 11.5297 45.6818 10.4026C45.8692 9.27546 46.9247 8.52037 48.0574 8.6995C52.9021 9.49593 56.4213 13.6407 56.4213 18.5544C56.4103 23.5011 52.7147 27.7451 47.8231 28.4313C47.7267 28.445 47.6302 28.4506 47.5365 28.4506Z" fill="white"/>
  <path d="M45.4917 26.6703L45.1945 26.7115L45.1946 26.7123L45.4917 26.6703ZM47.2527 24.3361L47.2939 24.6333L47.2944 24.6332L47.2527 24.3361ZM52.2876 18.5488L52.5876 18.5494V18.5488H52.2876ZM47.3849 12.7781L47.3363 13.0742L47.3364 13.0742L47.3849 12.7781ZM45.6818 10.4026L45.3859 10.3534L45.3858 10.3541L45.6818 10.4026ZM48.0574 8.6995L48.106 8.40346L48.1042 8.40318L48.0574 8.6995ZM56.4213 18.5544L56.7213 18.555V18.5544H56.4213ZM47.8231 28.4313L47.7814 28.1342L47.7807 28.1343L47.8231 28.4313ZM47.5365 28.1506C46.67 28.1506 45.9136 27.512 45.7887 26.6283L45.1946 26.7123C45.3619 27.8955 46.3747 28.7506 47.5365 28.7506V28.1506ZM45.7888 26.6291C45.6544 25.6596 46.3263 24.7674 47.2939 24.6332L47.2114 24.0389C45.9137 24.2189 45.0148 25.4157 45.1945 26.7115L45.7888 26.6291ZM47.2944 24.6332C50.3086 24.21 52.5818 21.5976 52.5876 18.5494L51.9876 18.5483C51.9823 21.2984 49.9288 23.6575 47.2109 24.039L47.2944 24.6332ZM52.5876 18.5488C52.5876 15.5276 50.4198 12.9716 47.4335 12.4821L47.3364 13.0742C50.0326 13.5161 51.9876 15.8214 51.9876 18.5488H52.5876ZM47.4335 12.4821C46.473 12.3244 45.82 11.4152 45.9779 10.4511L45.3858 10.3541C45.1744 11.6443 46.0481 12.8626 47.3363 13.0742L47.4335 12.4821ZM45.9778 10.4518C46.1379 9.48881 47.039 8.84216 48.0105 8.99581L48.1042 8.40318C46.8105 8.19857 45.6006 9.06212 45.3859 10.3534L45.9778 10.4518ZM48.0087 8.99552C52.7084 9.76812 56.1213 13.7875 56.1213 18.5544H56.7213C56.7213 13.4939 53.0958 9.22374 48.106 8.40347L48.0087 8.99552ZM56.1213 18.5537C56.1106 23.3513 52.5249 27.4687 47.7814 28.1342L47.8648 28.7284C52.9045 28.0214 56.71 23.6508 56.7213 18.555L56.1213 18.5537ZM47.7807 28.1343C47.7007 28.1457 47.6186 28.1506 47.5365 28.1506V28.7506C47.6418 28.7506 47.7526 28.7444 47.8655 28.7282L47.7807 28.1343Z" fill="white" mask="url(#path-1-outside-1_41_1136)"/>
  <mask id="mask0_41_1136" style="mask-type:luminance" maskUnits="userSpaceOnUse" x="50" y="33" width="12" height="14">
    <path d="M50.5439 33.4132H50.3939V33.5632V46.046V46.196H50.5439H60.9995H61.1495V46.046V33.5632V33.4132H60.9995H50.5439Z" fill="white" stroke="white" stroke-width="0.3"/>
  </mask>
  <g mask="url(#mask0_41_1136)">
    <mask id="path-4-outside-2_41_1136" maskUnits="userSpaceOnUse" x="49.5439" y="32.5632" width="12" height="14" fill="black">
      <rect fill="white" x="49.5439" y="32.5632" width="12" height="14"/>
      <path fill-rule="evenodd" clip-rule="evenodd" d="M55.7339 46.046C54.9017 46.046 54.1163 45.5389 53.8021 44.7149C53.3942 43.6484 53.9316 42.4524 54.9981 42.0473C56.8666 41.3362 56.8666 40.5508 56.8666 40.1733C56.8666 38.9662 55.3316 38.1229 52.3057 37.671C51.1785 37.5001 50.3986 36.4502 50.5667 35.3175C50.7348 34.1876 51.7821 33.4353 52.9202 33.5813C59.5976 34.5817 61.0003 37.7178 61.0003 40.1733C61.0003 41.6725 60.4106 44.409 56.4697 45.9109C56.2272 46.0019 55.9792 46.046 55.7339 46.046Z"/>
    </mask>
    <path fill-rule="evenodd" clip-rule="evenodd" d="M55.7339 46.046C54.9017 46.046 54.1163 45.5389 53.8021 44.7149C53.3942 43.6484 53.9316 42.4524 54.9981 42.0473C56.8666 41.3362 56.8666 40.5508 56.8666 40.1733C56.8666 38.9662 55.3316 38.1229 52.3057 37.671C51.1785 37.5001 50.3986 36.4502 50.5667 35.3175C50.7348 34.1876 51.7821 33.4353 52.9202 33.5813C59.5976 34.5817 61.0003 37.7178 61.0003 40.1733C61.0003 41.6725 60.4106 44.409 56.4697 45.9109C56.2272 46.0019 55.9792 46.046 55.7339 46.046Z" fill="white"/>
    <path d="M53.8021 44.7149L54.0824 44.608L54.0823 44.6077L53.8021 44.7149ZM54.9981 42.0473L55.1047 42.3277L55.1048 42.3276L54.9981 42.0473ZM52.3057 37.671L52.2607 37.9676L52.2614 37.9677L52.3057 37.671ZM50.5667 35.3175L50.27 35.2734L50.27 35.2735L50.5667 35.3175ZM52.9202 33.5813L52.9647 33.2846L52.9584 33.2838L52.9202 33.5813ZM56.4697 45.9109L56.5751 46.1918L56.5766 46.1913L56.4697 45.9109ZM55.7339 45.746C55.022 45.746 54.3508 45.3119 54.0824 44.608L53.5218 44.8218C53.8817 45.7659 54.7814 46.346 55.7339 46.346V45.746ZM54.0823 44.6077C53.7338 43.6965 54.193 42.674 55.1047 42.3277L54.8916 41.7668C53.6702 42.2307 53.0546 43.6003 53.5219 44.8221L54.0823 44.6077ZM55.1048 42.3276C56.0686 41.9609 56.5972 41.5581 56.8785 41.1577C57.1674 40.7465 57.1666 40.3766 57.1666 40.1733H56.5666C56.5666 40.3475 56.5658 40.5591 56.3876 40.8128C56.2018 41.0772 55.7961 41.4226 54.8914 41.7669L55.1048 42.3276ZM57.1666 40.1733C57.1666 39.415 56.6756 38.8207 55.8652 38.376C55.0571 37.9325 53.8757 37.6022 52.35 37.3743L52.2614 37.9677C53.7615 38.1918 54.8606 38.5091 55.5765 38.902C56.2901 39.2936 56.5666 39.7245 56.5666 40.1733H57.1666ZM52.3506 37.3744C51.3866 37.2282 50.7197 36.3303 50.8635 35.3616L50.27 35.2735C50.0776 36.57 50.9705 37.772 52.2607 37.9676L52.3506 37.3744ZM50.8635 35.3617C51.0062 34.4021 51.8969 33.7525 52.882 33.8789L52.9584 33.2838C51.6672 33.1181 50.4635 33.9731 50.27 35.2734L50.8635 35.3617ZM52.8758 33.878C56.1756 34.3724 58.1253 35.3878 59.2495 36.5411C60.3686 37.6891 60.7003 39.0054 60.7003 40.1733H61.3003C61.3003 38.8858 60.9307 37.4062 59.6791 36.1222C58.4326 34.8435 56.3422 33.7906 52.9647 33.2846L52.8758 33.878ZM60.7003 40.1733C60.7003 40.885 60.5602 41.8861 59.9561 42.8859C59.3544 43.8818 58.2778 44.9008 56.3629 45.6306L56.5766 46.1913C58.6025 45.4191 59.7913 44.3189 60.4696 43.1962C61.1456 42.0776 61.3003 40.9607 61.3003 40.1733H60.7003ZM56.3644 45.63C56.1553 45.7085 55.9429 45.746 55.7339 45.746V46.346C56.0155 46.346 56.2992 46.2953 56.5751 46.1918L56.3644 45.63Z" fill="white" mask="url(#path-4-outside-2_41_1136)"/>
  </g>
  <mask id="path-6-outside-3_41_1136" maskUnits="userSpaceOnUse" x="11.5127" y="33.6989" width="39" height="19" fill="black">
    <rect fill="white" x="11.5127" y="33.6989" width="39" height="19"/>
    <path fill-rule="evenodd" clip-rule="evenodd" d="M31.0017 38.8329C24.4539 38.8329 16.6466 39.6376 16.6466 43.4682C16.6466 47.3292 24.4539 48.1394 31.0017 48.1394C37.5496 48.1394 45.3541 47.3374 45.3541 43.5151C45.3541 39.6459 37.5496 38.8329 31.0017 38.8329ZM31.0016 52.2728C26.4297 52.2728 12.5127 52.2728 12.5127 43.4679C12.5127 34.6989 26.4297 34.6989 31.0016 34.6989C35.5735 34.6989 49.4877 34.6989 49.4877 43.5148C49.4877 52.2728 36.0585 52.2728 31.0016 52.2728Z"/>
  </mask>
  <path fill-rule="evenodd" clip-rule="evenodd" d="M31.0017 38.8329C24.4539 38.8329 16.6466 39.6376 16.6466 43.4682C16.6466 47.3292 24.4539 48.1394 31.0017 48.1394C37.5496 48.1394 45.3541 47.3374 45.3541 43.5151C45.3541 39.6459 37.5496 38.8329 31.0017 38.8329ZM31.0016 52.2728C26.4297 52.2728 12.5127 52.2728 12.5127 43.4679C12.5127 34.6989 26.4297 34.6989 31.0016 34.6989C35.5735 34.6989 49.4877 34.6989 49.4877 43.5148C49.4877 52.2728 36.0585 52.2728 31.0016 52.2728Z" fill="white"/>
  <path d="M31.0017 38.5329C27.7218 38.5329 24.1036 38.7339 21.2972 39.4227C19.8957 39.7668 18.6712 40.2383 17.791 40.8863C16.9025 41.5404 16.3466 42.3903 16.3466 43.4682H16.9466C16.9466 42.6309 17.3666 41.9437 18.1467 41.3695C18.9349 40.7893 20.0715 40.3414 21.4402 40.0054C24.1744 39.3343 27.7338 39.1329 31.0017 39.1329V38.5329ZM16.3466 43.4682C16.3466 44.5528 16.9014 45.4086 17.7901 46.0679C18.6704 46.7209 19.895 47.1962 21.2967 47.5429C24.1034 48.237 27.7217 48.4394 31.0017 48.4394V47.8394C27.7339 47.8394 24.1747 47.6366 21.4408 46.9604C20.0722 46.6219 18.9357 46.1707 18.1475 45.586C17.3677 45.0074 16.9466 44.3142 16.9466 43.4682H16.3466ZM31.0017 48.4394C34.2817 48.4394 37.8991 48.2391 40.7047 47.552C42.1059 47.2088 43.33 46.7385 44.21 46.0919C45.0981 45.4394 45.6541 44.5912 45.6541 43.5151H45.0541C45.0541 44.3501 44.6345 45.0355 43.8547 45.6084C43.0668 46.1873 41.9305 46.6341 40.562 46.9692C37.8284 47.6387 34.2697 47.8394 31.0017 47.8394V48.4394ZM45.6541 43.5151C45.6541 42.4288 45.0998 41.5713 44.2114 40.9105C43.3313 40.2559 42.107 39.7794 40.7056 39.4319C37.8995 38.7359 34.2818 38.5329 31.0017 38.5329V39.1329C34.2696 39.1329 37.828 39.3364 40.5612 40.0142C41.9293 40.3536 43.0654 40.8059 43.8533 41.3919C44.6329 41.9717 45.0541 42.6667 45.0541 43.5151H45.6541ZM31.0016 51.9728C28.7113 51.9728 24.1279 51.9713 20.1213 50.8827C18.1186 50.3385 16.2865 49.5294 14.9593 48.3352C13.6418 47.1498 12.8127 45.5781 12.8127 43.4679H12.2127C12.2127 45.7602 13.1232 47.4903 14.558 48.7812C15.9831 50.0635 17.916 50.9052 19.964 51.4617C24.0589 52.5743 28.7199 52.5728 31.0016 52.5728V51.9728ZM12.8127 43.4679C12.8127 41.3671 13.6414 39.8022 14.9589 38.6217C16.286 37.4324 18.1182 36.6265 20.121 36.0846C24.1277 35.0004 28.7113 34.9989 31.0016 34.9989V34.3989C28.7199 34.3989 24.0591 34.3974 19.9643 35.5054C17.9164 36.0596 15.9836 36.8979 14.5585 38.1749C13.1236 39.4606 12.2127 41.1842 12.2127 43.4679H12.8127ZM31.0016 34.9989C33.2919 34.9989 37.8746 35.0004 41.8804 36.0903C43.8827 36.6351 45.7144 37.4453 47.0414 38.6409C48.3586 39.8279 49.1877 41.4017 49.1877 43.5148H49.7877C49.7877 41.2199 48.8775 39.4877 47.443 38.1952C46.0182 36.9114 44.0856 36.0685 42.0379 35.5114C37.9436 34.3973 33.2832 34.3989 31.0016 34.3989V34.9989ZM49.1877 43.5148C49.1877 45.6163 48.3865 47.1797 47.1072 48.3573C45.8184 49.5436 44.0329 50.3478 42.0616 50.8887C38.1172 51.9712 33.5355 51.9728 31.0016 51.9728V52.5728C33.5246 52.5728 38.186 52.5744 42.2204 51.4673C44.2386 50.9135 46.1264 50.0756 47.5136 48.7987C48.9102 47.5131 49.7877 45.7922 49.7877 43.5148H49.1877Z" fill="white" mask="url(#path-6-outside-3_41_1136)"/>
  <mask id="path-8-outside-4_41_1136" maskUnits="userSpaceOnUse" x="17.4128" y="5.00024" width="27" height="27" fill="black">
    <rect fill="white" x="17.4128" y="5.00024" width="27" height="27"/>
    <path fill-rule="evenodd" clip-rule="evenodd" d="M31.0008 10.1342C26.3379 10.1342 22.5459 13.929 22.5459 18.5918C22.5376 20.8516 23.403 22.9654 24.9876 24.561C26.5722 26.1566 28.6831 27.0412 30.9319 27.0495L31.0008 29.1164V27.0495C35.6636 27.0495 39.4584 23.2575 39.4584 18.5918C39.4584 13.929 35.6636 10.1342 31.0008 10.1342ZM31.0016 31.1831H30.9272C27.5651 31.172 24.4152 29.8547 22.0562 27.4737C19.6917 25.0954 18.3992 21.9372 18.413 18.5834C18.413 11.6497 24.0597 6.00024 31.0016 6.00024C37.9463 6.00024 43.593 11.6497 43.593 18.5916C43.593 25.5336 37.9463 31.1831 31.0016 31.1831Z"/>
  </mask>
  <path fill-rule="evenodd" clip-rule="evenodd" d="M31.0008 10.1342C26.3379 10.1342 22.5459 13.929 22.5459 18.5918C22.5376 20.8516 23.403 22.9654 24.9876 24.561C26.5722 26.1566 28.6831 27.0412 30.9319 27.0495L31.0008 29.1164V27.0495C35.6636 27.0495 39.4584 23.2575 39.4584 18.5918C39.4584 13.929 35.6636 10.1342 31.0008 10.1342ZM31.0016 31.1831H30.9272C27.5651 31.172 24.4152 29.8547 22.0562 27.4737C19.6917 25.0954 18.3992 21.9372 18.413 18.5834C18.413 11.6497 24.0597 6.00024 31.0016 6.00024C37.9463 6.00024 43.593 11.6497 43.593 18.5916C43.593 25.5336 37.9463 31.1831 31.0016 31.1831Z" fill="white"/>
  <path d="M22.5459 18.5918L22.8459 18.5929V18.5918H22.5459ZM30.9319 27.0495L31.2317 27.0395L31.2221 26.7506L30.933 26.7495L30.9319 27.0495ZM31.0008 29.1164L30.7009 29.1264L31.3008 29.1164H31.0008ZM31.0008 27.0495V26.7495H30.7008V27.0495H31.0008ZM30.9272 31.1831L30.9262 31.4831H30.9272V31.1831ZM22.0562 27.4737L22.2693 27.2626L22.2689 27.2622L22.0562 27.4737ZM18.413 18.5834L18.713 18.5846V18.5834H18.413ZM31.0008 9.83419C26.1721 9.83419 22.2459 13.7634 22.2459 18.5918H22.8459C22.8459 14.0945 26.5037 10.4342 31.0008 10.4342V9.83419ZM22.2459 18.5907C22.2373 20.9298 23.1338 23.12 24.7747 24.7724L25.2004 24.3496C23.6721 22.8107 22.8379 20.7735 22.8459 18.5929L22.2459 18.5907ZM24.7747 24.7724C26.4153 26.4244 28.6024 27.3409 30.9308 27.3495L30.933 26.7495C28.7639 26.7415 26.7291 25.8889 25.2004 24.3496L24.7747 24.7724ZM30.6321 27.0595L30.7009 29.1264L31.3006 29.1064L31.2317 27.0395L30.6321 27.0595ZM31.3008 29.1164V27.0495H30.7008V29.1164H31.3008ZM31.0008 27.3495C35.8293 27.3495 39.7584 23.4232 39.7584 18.5918H39.1584C39.1584 23.0917 35.498 26.7495 31.0008 26.7495V27.3495ZM39.7584 18.5918C39.7584 13.7633 35.8293 9.83419 31.0008 9.83419V10.4342C35.498 10.4342 39.1584 14.0947 39.1584 18.5918H39.7584ZM31.0016 30.8831H30.9272V31.4831H31.0016V30.8831ZM30.9282 30.8831C27.6455 30.8723 24.572 29.5868 22.2693 27.2626L21.843 27.6848C24.2583 30.1227 27.4846 31.4718 30.9262 31.4831L30.9282 30.8831ZM22.2689 27.2622C19.9607 24.9405 18.6995 21.8589 18.7129 18.5846L18.113 18.5822C18.0988 22.0155 19.4226 25.2503 21.8434 27.6852L22.2689 27.2622ZM18.713 18.5834C18.713 11.8154 24.2253 6.30024 31.0016 6.30024V5.70024C23.894 5.70024 18.113 11.484 18.113 18.5834H18.713ZM31.0016 6.30024C37.7806 6.30024 43.293 11.8153 43.293 18.5916H43.893C43.893 11.4841 38.112 5.70024 31.0016 5.70024V6.30024ZM43.293 18.5916C43.293 25.368 37.7806 30.8831 31.0016 30.8831V31.4831C38.112 31.4831 43.893 25.6992 43.893 18.5916H43.293Z" fill="white" mask="url(#path-8-outside-4_41_1136)"/>
  <mask id="path-10-outside-5_41_1136" maskUnits="userSpaceOnUse" x="4.58154" y="7.67249" width="13" height="22" fill="black">
    <rect fill="white" x="4.58154" y="7.67249" width="13" height="22"/>
    <path fill-rule="evenodd" clip-rule="evenodd" d="M14.4636 28.4503C14.3699 28.4503 14.2734 28.4448 14.177 28.431C9.28538 27.7448 5.59257 23.5009 5.58154 18.5596C5.58154 13.6405 9.10074 9.49572 13.9455 8.69928C15.1057 8.5174 16.1336 9.28076 16.321 10.4024C16.5057 11.5295 15.7423 12.5933 14.6179 12.7779C11.7767 13.2436 9.71529 15.6743 9.71529 18.5541C9.7208 21.4478 11.8841 23.9363 14.7474 24.3359C15.8801 24.493 16.6655 25.5374 16.5084 26.6701C16.3624 27.7035 15.4777 28.4503 14.4636 28.4503Z"/>
  </mask>
  <path fill-rule="evenodd" clip-rule="evenodd" d="M14.4636 28.4503C14.3699 28.4503 14.2734 28.4448 14.177 28.431C9.28538 27.7448 5.59257 23.5009 5.58154 18.5596C5.58154 13.6405 9.10074 9.49572 13.9455 8.69928C15.1057 8.5174 16.1336 9.28076 16.321 10.4024C16.5057 11.5295 15.7423 12.5933 14.6179 12.7779C11.7767 13.2436 9.71529 15.6743 9.71529 18.5541C9.7208 21.4478 11.8841 23.9363 14.7474 24.3359C15.8801 24.493 16.6655 25.5374 16.5084 26.6701C16.3624 27.7035 15.4777 28.4503 14.4636 28.4503Z" fill="white"/>
  <path d="M14.177 28.431L14.2194 28.1341L14.2187 28.1339L14.177 28.431ZM5.58154 18.5596H5.28154L5.28154 18.5603L5.58154 18.5596ZM13.9455 8.69928L13.899 8.40289L13.8968 8.40326L13.9455 8.69928ZM16.321 10.4024L16.6171 10.3539L16.6169 10.3529L16.321 10.4024ZM14.6179 12.7779L14.6664 13.074L14.6665 13.0739L14.6179 12.7779ZM9.71529 18.5541H9.41529L9.41529 18.5547L9.71529 18.5541ZM14.7474 24.3359L14.706 24.633L14.7062 24.633L14.7474 24.3359ZM16.5084 26.6701L16.8055 26.712L16.8056 26.7113L16.5084 26.6701ZM14.4636 28.1503C14.3815 28.1503 14.2994 28.1455 14.2194 28.1341L14.1346 28.728C14.2474 28.7442 14.3583 28.7503 14.4636 28.7503V28.1503ZM14.2187 28.1339C9.47521 27.4685 5.89223 23.3511 5.88154 18.559L5.28154 18.5603C5.2929 23.6506 9.09555 28.0211 14.1353 28.7281L14.2187 28.1339ZM5.88154 18.5596C5.88154 13.7872 9.29453 9.76789 13.9942 8.99531L13.8968 8.40326C8.90695 9.22355 5.28154 13.4938 5.28154 18.5596H5.88154ZM13.992 8.99566C14.9884 8.83945 15.8646 9.49122 16.0251 10.4518L16.6169 10.3529C16.4026 9.07031 15.223 8.19534 13.899 8.4029L13.992 8.99566ZM16.025 10.4509C16.1829 11.4149 15.5298 12.3241 14.5693 12.4819L14.6665 13.0739C15.9547 12.8624 16.8284 11.6441 16.6171 10.3539L16.025 10.4509ZM14.5694 12.4819C11.5828 12.9714 9.41529 15.5276 9.41529 18.5541H10.0153C10.0153 15.821 11.9705 13.5159 14.6664 13.074L14.5694 12.4819ZM9.41529 18.5547C9.42109 21.5972 11.6941 24.2127 14.706 24.633L14.7889 24.0387C12.0741 23.6599 10.0205 21.2983 10.0153 18.5536L9.41529 18.5547ZM14.7062 24.633C15.6738 24.7672 16.3457 25.6593 16.2113 26.6288L16.8056 26.7113C16.9853 25.4155 16.0864 24.2187 14.7887 24.0387L14.7062 24.633ZM16.2114 26.6281C16.0865 27.5117 15.3301 28.1503 14.4636 28.1503V28.7503C15.6254 28.7503 16.6382 27.8953 16.8055 26.712L16.2114 26.6281Z" fill="white" mask="url(#path-10-outside-5_41_1136)"/>
  <mask id="path-12-outside-6_41_1136" maskUnits="userSpaceOnUse" x="-0.000244141" y="32.564" width="12" height="14" fill="black">
    <rect fill="white" x="-0.000244141" y="32.564" width="12" height="14"/>
    <path fill-rule="evenodd" clip-rule="evenodd" d="M6.26891 46.0461C6.02364 46.0461 5.77561 46.002 5.5331 45.9111C1.5895 44.4064 0.999756 41.6699 0.999756 40.1734C0.999756 37.7207 2.40247 34.5819 9.08261 33.5815C10.2208 33.4382 11.2625 34.1878 11.4333 35.3177C11.6014 36.4503 10.8215 37.5003 9.69441 37.6711C6.6685 38.1231 5.1335 38.9664 5.1335 40.1734C5.1335 40.551 5.1335 41.3336 7.00471 42.0474C8.07122 42.4525 8.60861 43.6485 8.20074 44.715C7.88658 45.539 7.10117 46.0461 6.26891 46.0461Z"/>
  </mask>
  <path fill-rule="evenodd" clip-rule="evenodd" d="M6.26891 46.0461C6.02364 46.0461 5.77561 46.002 5.5331 45.9111C1.5895 44.4064 0.999756 41.6699 0.999756 40.1734C0.999756 37.7207 2.40247 34.5819 9.08261 33.5815C10.2208 33.4382 11.2625 34.1878 11.4333 35.3177C11.6014 36.4503 10.8215 37.5003 9.69441 37.6711C6.6685 38.1231 5.1335 38.9664 5.1335 40.1734C5.1335 40.551 5.1335 41.3336 7.00471 42.0474C8.07122 42.4525 8.60861 43.6485 8.20074 44.715C7.88658 45.539 7.10117 46.0461 6.26891 46.0461Z" fill="white"/>
  <path d="M5.5331 45.9111L5.42615 46.1914L5.42776 46.192L5.5331 45.9111ZM9.08261 33.5815L9.04512 33.2838L9.03818 33.2848L9.08261 33.5815ZM11.4333 35.3177L11.7301 35.2736L11.73 35.2728L11.4333 35.3177ZM9.69441 37.6711L9.73872 37.9679L9.73937 37.9678L9.69441 37.6711ZM7.00471 42.0474L6.89779 42.3277L6.89819 42.3279L7.00471 42.0474ZM8.20074 44.715L7.92054 44.6079L7.92043 44.6082L8.20074 44.715ZM6.26891 45.7461C6.0599 45.7461 5.84754 45.7086 5.63844 45.6302L5.42776 46.192C5.70369 46.2954 5.98737 46.3461 6.26891 46.3461V45.7461ZM5.64004 45.6308C3.72367 44.8996 2.64639 43.8799 2.04431 42.884C1.43982 41.884 1.29976 40.8837 1.29976 40.1734H0.699756C0.699756 40.9596 0.854569 42.0757 1.53085 43.1944C2.20954 44.317 3.39893 45.4179 5.42615 46.1914L5.64004 45.6308ZM1.29976 40.1734C1.29976 39.0069 1.63148 37.6907 2.75095 36.5422C3.87548 35.3886 5.82585 34.3725 9.12704 33.8782L9.03818 33.2848C5.65923 33.7908 3.56818 34.8443 2.32131 36.1234C1.06939 37.4077 0.699756 38.8872 0.699756 40.1734H1.29976ZM9.12009 33.8791C10.1053 33.7551 10.9915 34.402 11.1367 35.3625L11.73 35.2728C11.5335 33.9735 10.3362 33.1213 9.04513 33.2838L9.12009 33.8791ZM11.1366 35.3617C11.2804 36.3305 10.6135 37.2284 9.64944 37.3745L9.73937 37.9678C11.0296 37.7722 11.9225 36.5701 11.7301 35.2736L11.1366 35.3617ZM9.65009 37.3744C8.12434 37.6023 6.94298 37.9326 6.1349 38.3761C5.32451 38.8209 4.8335 39.4151 4.8335 40.1734H5.4335C5.4335 39.7247 5.70999 39.2938 6.42358 38.9021C7.13948 38.5092 8.23857 38.1919 9.73872 37.9679L9.65009 37.3744ZM4.8335 40.1734C4.8335 40.3769 4.83272 40.7462 5.12214 41.1571C5.40379 41.557 5.93296 41.9597 6.89779 42.3277L7.11163 41.7671C6.20526 41.4214 5.79883 41.0759 5.61267 40.8116C5.43428 40.5583 5.4335 40.3475 5.4335 40.1734H4.8335ZM6.89819 42.3279C7.80981 42.6741 8.26903 43.6966 7.92054 44.6079L8.48095 44.8222C8.94819 43.6005 8.33263 42.2309 7.11124 41.767L6.89819 42.3279ZM7.92043 44.6082C7.65206 45.312 6.98088 45.7461 6.26891 45.7461V46.3461C7.22146 46.3461 8.1211 45.766 8.48106 44.8219L7.92043 44.6082Z" fill="white" mask="url(#path-12-outside-6_41_1136)"/>
</svg>