<svg width="25" height="25" viewBox="0 0 38 38" fill="none" xmlns="http://www.w3.org/2000/svg">
<rect width="25" height="25" fill="#D4D4D4"/>
<g id="Frame 1" clip-path="url(#clip0_0_1)">
<rect width="1920" height="1080" transform="translate(-27 -408)" fill="white"/>
<rect id="Rectangle 311" x="-27" y="-408" width="1920" height="1080" fill="#181818"/>
<g id="Frame">
<g id="Group">
<path id="Vector" d="M22.735 9.0141C24.4042 10.0607 25.5746 11.8316 25.7877 13.8874C26.4876 14.2166 27.2515 14.3877 28.025 14.3883C30.9493 14.3883 33.3195 12.0182 33.3195 9.09429C33.3195 6.16998 30.9493 3.7998 28.025 3.7998C25.1286 3.80071 22.7791 6.12853 22.735 9.0141ZM19.2665 19.8545C22.1908 19.8545 24.5609 17.4838 24.5609 14.56C24.5609 11.6361 22.1903 9.26594 19.2665 9.26594C16.3426 9.26594 13.9711 11.6366 13.9711 14.5604C13.9711 17.4843 16.3426 19.8545 19.2665 19.8545ZM21.5123 20.2153H17.0197C13.2818 20.2153 10.2408 23.2568 10.2408 26.9947V32.4888L10.2547 32.5748L10.6332 32.6933C14.2004 33.8079 17.2995 34.1796 19.8503 34.1796C24.8326 34.1796 27.7204 32.7591 27.8984 32.6685L28.252 32.4897H28.2899V26.9947C28.2912 23.2568 25.2502 20.2153 21.5123 20.2153ZM30.2717 14.7496H25.8138C25.7685 16.471 25.0447 18.1046 23.8 19.2945C27.1226 20.2825 29.5536 23.3635 29.5536 27.0028V28.6959C33.9551 28.5346 36.4916 27.2871 36.6587 27.2033L37.0123 27.024H37.0502V21.5281C37.0502 17.7906 34.0092 14.7496 30.2717 14.7496ZM9.97632 14.3892C11.0121 14.3892 11.9757 14.0869 12.7921 13.572C13.0482 11.9152 13.9297 10.4196 15.255 9.39299C15.2604 9.29387 15.2699 9.19566 15.2699 9.09564C15.2699 6.17133 12.8993 3.80116 9.97632 3.80116C7.05156 3.80116 4.68183 6.17133 4.68183 9.09564C4.68183 12.0186 7.05156 14.3892 9.97632 14.3892ZM14.7311 19.2945C13.4933 18.1103 12.7706 16.4871 12.7186 14.7749C12.5533 14.7627 12.3897 14.7496 12.2213 14.7496H7.72914C3.99119 14.7496 0.950195 17.7906 0.950195 21.5281V27.0231L0.964161 27.1078L1.3426 27.2272C4.20429 28.1206 6.75827 28.5323 8.97662 28.6621V27.0028C8.97752 23.3635 11.4076 20.2834 14.7311 19.2945Z" fill="#646464"/>
</g>
</g>
</g>
<defs>
<clipPath id="clip0_0_1">
<rect width="1920" height="1080" fill="white" transform="translate(-27 -408)"/>
</clipPath>
</defs>
</svg>
