<svg xmlns="http://www.w3.org/2000/svg" width="30" height="30" viewBox="0 0 30 30" fill="none">
  <path d="M10.4751 15.0001L13.4876 18.0251L19.5251 11.9751" stroke="#0FB515" stroke-width="2" stroke-linecap="round" stroke-linejoin="round"/>
  <path d="M13.4376 3.0624C14.3001 2.3249 15.7126 2.3249 16.5876 3.0624L18.5626 4.7624C18.9376 5.0874 19.6376 5.3499 20.1376 5.3499H22.2626C23.5876 5.3499 24.6751 6.4374 24.6751 7.7624V9.8874C24.6751 10.3749 24.9376 11.0874 25.2626 11.4624L26.9626 13.4373C27.7001 14.2998 27.7001 15.7123 26.9626 16.5873L25.2626 18.5623C24.9376 18.9373 24.6751 19.6373 24.6751 20.1373V22.2623C24.6751 23.5873 23.5876 24.6748 22.2626 24.6748H20.1376C19.6501 24.6748 18.9376 24.9373 18.5626 25.2623L16.5876 26.9623C15.7251 27.6998 14.3126 27.6998 13.4376 26.9623L11.4626 25.2623C11.0876 24.9373 10.3876 24.6748 9.8876 24.6748H7.7251C6.4001 24.6748 5.3126 23.5873 5.3126 22.2623V20.1248C5.3126 19.6373 5.0501 18.9373 4.7376 18.5623L3.0501 16.5748C2.3251 15.7123 2.3251 14.3123 3.0501 13.4498L4.7376 11.4624C5.0501 11.0874 5.3126 10.3874 5.3126 9.8999V7.7499C5.3126 6.4249 6.4001 5.3374 7.7251 5.3374H9.8876C10.3751 5.3374 11.0876 5.0749 11.4626 4.7499L13.4376 3.0624Z" stroke="#0FB515" stroke-width="2" stroke-linecap="round" stroke-linejoin="round"/>
</svg>