<svg xmlns="http://www.w3.org/2000/svg" width="30" height="30" viewBox="0 0 30 30" fill="none">
<path d="M1 15C1 18.0653 1.16555 20.4603 1.58286 22.338C1.99765 24.2044 2.64775 25.4979 3.57492 26.4251C4.50209 27.3523 5.79561 28.0023 7.66199 28.4171C9.53972 28.8344 11.9347 29 15 29C18.0653 29 20.4603 28.8344 22.338 28.4171C24.2044 28.0023 25.4979 27.3523 26.4251 26.4251C27.3523 25.4979 28.0023 24.2044 28.4171 22.338C28.8344 20.4603 29 18.0653 29 15C29 11.9347 28.8344 9.53972 28.4171 7.66199C28.0023 5.79561 27.3523 4.50209 26.4251 3.57492C25.4979 2.64775 24.2044 1.99765 22.338 1.58286C20.4603 1.16555 18.0653 1 15 1C11.9347 1 9.53972 1.16555 7.66199 1.58286C5.79561 1.99765 4.50209 2.64775 3.57492 3.57492C2.64775 4.50209 1.99765 5.79561 1.58286 7.66199C1.16555 9.53972 1 11.9347 1 15Z" stroke="#3144E7" stroke-width="2" stroke-linecap="round" stroke-linejoin="round"/>
<path d="M20.8667 15C20.8667 14.1497 20.3651 13.5569 19.8315 13.1149C19.3244 12.6949 18.5975 12.257 17.7575 11.7512C17.7352 11.7377 17.7128 11.7242 17.6904 11.7107L15.6712 10.4944C15.6482 10.4805 15.6253 10.4667 15.6024 10.453C14.7639 9.94779 14.0366 9.50958 13.4329 9.26075C12.8033 9.00129 12.0229 8.8268 11.2738 9.27802C10.5406 9.71966 10.3074 10.4809 10.2108 11.1594C10.1166 11.8215 10.1166 12.6915 10.1167 13.7075C10.1167 13.7328 10.1167 13.7582 10.1167 13.7837L10.1167 16.2163C10.1167 16.2418 10.1167 16.2672 10.1167 16.2925C10.1166 17.3086 10.1166 18.1785 10.2108 18.8406C10.3074 19.5191 10.5406 20.2803 11.2738 20.722C12.0229 21.1732 12.8033 20.9987 13.4329 20.7393C14.0366 20.4904 14.7639 20.0522 15.6024 19.547C15.6253 19.5333 15.6482 19.5195 15.6712 19.5056L17.6904 18.2893C17.7129 18.2757 17.7352 18.2623 17.7576 18.2488C18.5975 17.743 19.3244 17.3051 19.8315 16.8851C20.3651 16.4431 20.8667 15.8503 20.8667 15Z" stroke="#3144E7" stroke-width="2" stroke-linecap="round" stroke-linejoin="round"/>
</svg>
